<svg width="1100" height="600" viewBox="0 0 1100 600" fill="none" xmlns="http://www.w3.org/2000/svg">
<g id="pert_diagram_10_nodes 1">
<path id="edge-0-10" d="M70 273L182 186" stroke="black" stroke-width="2"/>
<path id="edge-0-20" d="M70 328L185 451" stroke="black" stroke-width="2"/>
<path id="edge-0-30" d="M81 299L356 200" stroke="black" stroke-width="2"/>
<path id="edge-10-30" d="M260 174.109L349 173.991" stroke="black" stroke-width="2"/>
<path id="edge-20-40" d="M233 447L330 346" stroke="black" stroke-width="2"/>
<path id="edge-40-60" d="M393 318L555 323" stroke="black" stroke-width="2"/>
<path id="edge-20-50" d="M248 482L485 487" stroke="black" stroke-width="2"/>
<path id="edge-50-70" d="M563 491L735 493" stroke="black" stroke-width="2"/>
<path id="edge-80-90" d="M689 199L799 289" stroke="black" stroke-width="2"/>
<path id="edge-20-60" d="M248 468L563 351" stroke="black" stroke-width="2"/>
<path id="edge-60-80" d="M604 296L643 207" stroke="black" stroke-width="2"/>
<path id="edge-70-90" d="M789 461L825 354" stroke="black" stroke-width="2"/>
<path id="edge-30-80" d="M617 173L429 174" stroke="black" stroke-width="2"/>
<g id="Nodo70">
<g id="EF">
<g id="Early">
<mask id="path-14-inside-1_41_2" fill="white">
<path d="M747.983 518.017C744.501 514.534 741.739 510.4 739.855 505.851C737.97 501.301 737 496.425 737 491.5C737 486.575 737.97 481.699 739.855 477.149C741.739 472.6 744.501 468.466 747.984 464.983L774.5 491.5L747.983 518.017Z"/>
</mask>
<path d="M747.983 518.017C744.501 514.534 741.739 510.4 739.855 505.851C737.97 501.301 737 496.425 737 491.5C737 486.575 737.97 481.699 739.855 477.149C741.739 472.6 744.501 468.466 747.984 464.983L774.5 491.5L747.983 518.017Z" fill="#D9D9D9" stroke="black" stroke-width="2" mask="url(#path-14-inside-1_41_2)"/>
</g>
<path id="0" d="M750.75 496.119C750.108 496.119 749.561 495.945 749.109 495.595C748.658 495.243 748.313 494.733 748.074 494.065C747.835 493.395 747.716 492.585 747.716 491.636C747.716 490.693 747.835 489.888 748.074 489.22C748.315 488.55 748.662 488.038 749.114 487.686C749.568 487.331 750.114 487.153 750.75 487.153C751.386 487.153 751.93 487.331 752.382 487.686C752.837 488.038 753.183 488.55 753.422 489.22C753.663 489.888 753.784 490.693 753.784 491.636C753.784 492.585 753.665 493.395 753.426 494.065C753.188 494.733 752.842 495.243 752.391 495.595C751.939 495.945 751.392 496.119 750.75 496.119ZM750.75 495.182C751.386 495.182 751.881 494.875 752.233 494.261C752.585 493.648 752.761 492.773 752.761 491.636C752.761 490.881 752.68 490.237 752.518 489.706C752.359 489.175 752.129 488.77 751.828 488.491C751.53 488.213 751.17 488.074 750.75 488.074C750.119 488.074 749.626 488.385 749.271 489.007C748.916 489.626 748.739 490.503 748.739 491.636C748.739 492.392 748.818 493.034 748.977 493.562C749.136 494.091 749.365 494.493 749.663 494.768C749.964 495.044 750.327 495.182 750.75 495.182Z" fill="black"/>
</g>
<g id="LF">
<g id="Latest">
<mask id="path-16-inside-2_41_2" fill="white">
<path d="M801.017 464.983C804.499 468.466 807.261 472.6 809.145 477.149C811.03 481.699 812 486.575 812 491.5C812 496.425 811.03 501.301 809.145 505.851C807.261 510.4 804.499 514.534 801.017 518.017L774.5 491.5L801.017 464.983Z"/>
</mask>
<path d="M801.017 464.983C804.499 468.466 807.261 472.6 809.145 477.149C811.03 481.699 812 486.575 812 491.5C812 496.425 811.03 501.301 809.145 505.851C807.261 510.4 804.499 514.534 801.017 518.017L774.5 491.5L801.017 464.983Z" fill="#D9D9D9" stroke="black" stroke-width="2" mask="url(#path-16-inside-2_41_2)"/>
</g>
<path id="0_2" d="M799.75 496.119C799.108 496.119 798.561 495.945 798.109 495.595C797.658 495.243 797.313 494.733 797.074 494.065C796.835 493.395 796.716 492.585 796.716 491.636C796.716 490.693 796.835 489.888 797.074 489.22C797.315 488.55 797.662 488.038 798.114 487.686C798.568 487.331 799.114 487.153 799.75 487.153C800.386 487.153 800.93 487.331 801.382 487.686C801.837 488.038 802.183 488.55 802.422 489.22C802.663 489.888 802.784 490.693 802.784 491.636C802.784 492.585 802.665 493.395 802.426 494.065C802.188 494.733 801.842 495.243 801.391 495.595C800.939 495.945 800.392 496.119 799.75 496.119ZM799.75 495.182C800.386 495.182 800.881 494.875 801.233 494.261C801.585 493.648 801.761 492.773 801.761 491.636C801.761 490.881 801.68 490.237 801.518 489.706C801.359 489.175 801.129 488.77 800.828 488.491C800.53 488.213 800.17 488.074 799.75 488.074C799.119 488.074 798.626 488.385 798.271 489.007C797.916 489.626 797.739 490.503 797.739 491.636C797.739 492.392 797.818 493.034 797.977 493.562C798.136 494.091 798.365 494.493 798.663 494.768C798.964 495.044 799.327 495.182 799.75 495.182Z" fill="black"/>
</g>
<g id="Holgura">
<g id="Holgura_2">
<mask id="path-18-inside-3_41_2" fill="white">
<path d="M801.017 518.017C797.534 521.499 793.4 524.261 788.851 526.145C784.301 528.03 779.425 529 774.5 529C769.575 529 764.699 528.03 760.149 526.145C755.6 524.261 751.466 521.499 747.983 518.016L774.5 491.5L801.017 518.017Z"/>
</mask>
<path d="M801.017 518.017C797.534 521.499 793.4 524.261 788.851 526.145C784.301 528.03 779.425 529 774.5 529C769.575 529 764.699 528.03 760.149 526.145C755.6 524.261 751.466 521.499 747.983 518.016L774.5 491.5L801.017 518.017Z" fill="#D9D9D9" stroke="black" stroke-width="2" mask="url(#path-18-inside-3_41_2)"/>
</g>
<path id="0_3" d="M774.75 519.119C774.108 519.119 773.561 518.945 773.109 518.595C772.658 518.243 772.313 517.733 772.074 517.065C771.835 516.395 771.716 515.585 771.716 514.636C771.716 513.693 771.835 512.888 772.074 512.22C772.315 511.55 772.662 511.038 773.114 510.686C773.568 510.331 774.114 510.153 774.75 510.153C775.386 510.153 775.93 510.331 776.382 510.686C776.837 511.038 777.183 511.55 777.422 512.22C777.663 512.888 777.784 513.693 777.784 514.636C777.784 515.585 777.665 516.395 777.426 517.065C777.188 517.733 776.842 518.243 776.391 518.595C775.939 518.945 775.392 519.119 774.75 519.119ZM774.75 518.182C775.386 518.182 775.881 517.875 776.233 517.261C776.585 516.648 776.761 515.773 776.761 514.636C776.761 513.881 776.68 513.237 776.518 512.706C776.359 512.175 776.129 511.77 775.828 511.491C775.53 511.213 775.17 511.074 774.75 511.074C774.119 511.074 773.626 511.385 773.271 512.007C772.916 512.626 772.739 513.503 772.739 514.636C772.739 515.392 772.818 516.034 772.977 516.562C773.136 517.091 773.365 517.493 773.663 517.768C773.964 518.044 774.327 518.182 774.75 518.182Z" fill="black"/>
</g>
<g id="Nombre">
<g id="NombreNodo">
<mask id="path-20-inside-4_41_2" fill="white">
<path d="M747.983 464.983C751.466 461.501 755.6 458.739 760.149 456.855C764.699 454.97 769.575 454 774.5 454C779.425 454 784.301 454.97 788.851 456.855C793.4 458.739 797.534 461.501 801.017 464.984L774.5 491.5L747.983 464.983Z"/>
</mask>
<path d="M747.983 464.983C751.466 461.501 755.6 458.739 760.149 456.855C764.699 454.97 769.575 454 774.5 454C779.425 454 784.301 454.97 788.851 456.855C793.4 458.739 797.534 461.501 801.017 464.984L774.5 491.5L747.983 464.983Z" fill="#D9D9D9" stroke="black" stroke-width="2" mask="url(#path-20-inside-4_41_2)"/>
</g>
<path id="10" d="M768.176 473L772.08 465.278V465.21H767.58V464.273H773.17V465.261L769.284 473H768.176ZM777.418 473.119C776.776 473.119 776.229 472.945 775.777 472.595C775.326 472.243 774.98 471.733 774.742 471.065C774.503 470.395 774.384 469.585 774.384 468.636C774.384 467.693 774.503 466.888 774.742 466.22C774.983 465.55 775.33 465.038 775.782 464.686C776.236 464.331 776.782 464.153 777.418 464.153C778.054 464.153 778.598 464.331 779.05 464.686C779.505 465.038 779.851 465.55 780.09 466.22C780.331 466.888 780.452 467.693 780.452 468.636C780.452 469.585 780.333 470.395 780.094 471.065C779.855 471.733 779.51 472.243 779.059 472.595C778.607 472.945 778.06 473.119 777.418 473.119ZM777.418 472.182C778.054 472.182 778.549 471.875 778.901 471.261C779.253 470.648 779.429 469.773 779.429 468.636C779.429 467.881 779.348 467.237 779.186 466.706C779.027 466.175 778.797 465.77 778.496 465.491C778.198 465.213 777.838 465.074 777.418 465.074C776.787 465.074 776.294 465.385 775.939 466.007C775.584 466.626 775.407 467.503 775.407 468.636C775.407 469.392 775.486 470.034 775.645 470.562C775.804 471.091 776.033 471.493 776.331 471.768C776.632 472.044 776.995 472.182 777.418 472.182Z" fill="black"/>
</g>
</g>
<g id="Nodo50">
<g id="EF_2">
<g id="Early_2">
<mask id="path-22-inside-5_41_2" fill="white">
<path d="M497.983 514.017C494.501 510.534 491.739 506.4 489.855 501.851C487.97 497.301 487 492.425 487 487.5C487 482.575 487.97 477.699 489.855 473.149C491.739 468.6 494.501 464.466 497.984 460.983L524.5 487.5L497.983 514.017Z"/>
</mask>
<path d="M497.983 514.017C494.501 510.534 491.739 506.4 489.855 501.851C487.97 497.301 487 492.425 487 487.5C487 482.575 487.97 477.699 489.855 473.149C491.739 468.6 494.501 464.466 497.984 460.983L524.5 487.5L497.983 514.017Z" fill="#D9D9D9" stroke="black" stroke-width="2" mask="url(#path-22-inside-5_41_2)"/>
</g>
<path id="0_4" d="M500.75 492.119C500.108 492.119 499.561 491.945 499.109 491.595C498.658 491.243 498.313 490.733 498.074 490.065C497.835 489.395 497.716 488.585 497.716 487.636C497.716 486.693 497.835 485.888 498.074 485.22C498.315 484.55 498.662 484.038 499.114 483.686C499.568 483.331 500.114 483.153 500.75 483.153C501.386 483.153 501.93 483.331 502.382 483.686C502.837 484.038 503.183 484.55 503.422 485.22C503.663 485.888 503.784 486.693 503.784 487.636C503.784 488.585 503.665 489.395 503.426 490.065C503.188 490.733 502.842 491.243 502.391 491.595C501.939 491.945 501.392 492.119 500.75 492.119ZM500.75 491.182C501.386 491.182 501.881 490.875 502.233 490.261C502.585 489.648 502.761 488.773 502.761 487.636C502.761 486.881 502.68 486.237 502.518 485.706C502.359 485.175 502.129 484.77 501.828 484.491C501.53 484.213 501.17 484.074 500.75 484.074C500.119 484.074 499.626 484.385 499.271 485.007C498.916 485.626 498.739 486.503 498.739 487.636C498.739 488.392 498.818 489.034 498.977 489.562C499.136 490.091 499.365 490.493 499.663 490.768C499.964 491.044 500.327 491.182 500.75 491.182Z" fill="black"/>
</g>
<g id="LF_2">
<g id="Latest_2">
<mask id="path-24-inside-6_41_2" fill="white">
<path d="M551.017 460.983C554.499 464.466 557.261 468.6 559.145 473.149C561.03 477.699 562 482.575 562 487.5C562 492.425 561.03 497.301 559.145 501.851C557.261 506.4 554.499 510.534 551.017 514.017L524.5 487.5L551.017 460.983Z"/>
</mask>
<path d="M551.017 460.983C554.499 464.466 557.261 468.6 559.145 473.149C561.03 477.699 562 482.575 562 487.5C562 492.425 561.03 497.301 559.145 501.851C557.261 506.4 554.499 510.534 551.017 514.017L524.5 487.5L551.017 460.983Z" fill="#D9D9D9" stroke="black" stroke-width="2" mask="url(#path-24-inside-6_41_2)"/>
</g>
<path id="0_5" d="M549.75 492.119C549.108 492.119 548.561 491.945 548.109 491.595C547.658 491.243 547.313 490.733 547.074 490.065C546.835 489.395 546.716 488.585 546.716 487.636C546.716 486.693 546.835 485.888 547.074 485.22C547.315 484.55 547.662 484.038 548.114 483.686C548.568 483.331 549.114 483.153 549.75 483.153C550.386 483.153 550.93 483.331 551.382 483.686C551.837 484.038 552.183 484.55 552.422 485.22C552.663 485.888 552.784 486.693 552.784 487.636C552.784 488.585 552.665 489.395 552.426 490.065C552.188 490.733 551.842 491.243 551.391 491.595C550.939 491.945 550.392 492.119 549.75 492.119ZM549.75 491.182C550.386 491.182 550.881 490.875 551.233 490.261C551.585 489.648 551.761 488.773 551.761 487.636C551.761 486.881 551.68 486.237 551.518 485.706C551.359 485.175 551.129 484.77 550.828 484.491C550.53 484.213 550.17 484.074 549.75 484.074C549.119 484.074 548.626 484.385 548.271 485.007C547.916 485.626 547.739 486.503 547.739 487.636C547.739 488.392 547.818 489.034 547.977 489.562C548.136 490.091 548.365 490.493 548.663 490.768C548.964 491.044 549.327 491.182 549.75 491.182Z" fill="black"/>
</g>
<g id="Holgura_3">
<g id="Holgura_4">
<mask id="path-26-inside-7_41_2" fill="white">
<path d="M551.017 514.017C547.534 517.499 543.4 520.261 538.851 522.145C534.301 524.03 529.425 525 524.5 525C519.575 525 514.699 524.03 510.149 522.145C505.6 520.261 501.466 517.499 497.983 514.016L524.5 487.5L551.017 514.017Z"/>
</mask>
<path d="M551.017 514.017C547.534 517.499 543.4 520.261 538.851 522.145C534.301 524.03 529.425 525 524.5 525C519.575 525 514.699 524.03 510.149 522.145C505.6 520.261 501.466 517.499 497.983 514.016L524.5 487.5L551.017 514.017Z" fill="#D9D9D9" stroke="black" stroke-width="2" mask="url(#path-26-inside-7_41_2)"/>
</g>
<path id="0_6" d="M524.75 515.119C524.108 515.119 523.561 514.945 523.109 514.595C522.658 514.243 522.313 513.733 522.074 513.065C521.835 512.395 521.716 511.585 521.716 510.636C521.716 509.693 521.835 508.888 522.074 508.22C522.315 507.55 522.662 507.038 523.114 506.686C523.568 506.331 524.114 506.153 524.75 506.153C525.386 506.153 525.93 506.331 526.382 506.686C526.837 507.038 527.183 507.55 527.422 508.22C527.663 508.888 527.784 509.693 527.784 510.636C527.784 511.585 527.665 512.395 527.426 513.065C527.188 513.733 526.842 514.243 526.391 514.595C525.939 514.945 525.392 515.119 524.75 515.119ZM524.75 514.182C525.386 514.182 525.881 513.875 526.233 513.261C526.585 512.648 526.761 511.773 526.761 510.636C526.761 509.881 526.68 509.237 526.518 508.706C526.359 508.175 526.129 507.77 525.828 507.491C525.53 507.213 525.17 507.074 524.75 507.074C524.119 507.074 523.626 507.385 523.271 508.007C522.916 508.626 522.739 509.503 522.739 510.636C522.739 511.392 522.818 512.034 522.977 512.562C523.136 513.091 523.365 513.493 523.663 513.768C523.964 514.044 524.327 514.182 524.75 514.182Z" fill="black"/>
</g>
<g id="Nombre_2">
<g id="NombreNodo_2">
<mask id="path-28-inside-8_41_2" fill="white">
<path d="M497.983 460.983C501.466 457.501 505.6 454.739 510.149 452.855C514.699 450.97 519.575 450 524.5 450C529.425 450 534.301 450.97 538.851 452.855C543.4 454.739 547.534 457.501 551.017 460.984L524.5 487.5L497.983 460.983Z"/>
</mask>
<path d="M497.983 460.983C501.466 457.501 505.6 454.739 510.149 452.855C514.699 450.97 519.575 450 524.5 450C529.425 450 534.301 450.97 538.851 452.855C543.4 454.739 547.534 457.501 551.017 460.984L524.5 487.5L497.983 460.983Z" fill="#D9D9D9" stroke="black" stroke-width="2" mask="url(#path-28-inside-8_41_2)"/>
</g>
<path id="50" d="M520.631 469.119C520.131 469.119 519.68 469.02 519.28 468.821C518.879 468.622 518.558 468.349 518.317 468.003C518.075 467.656 517.943 467.261 517.92 466.818H518.943C518.983 467.213 519.162 467.54 519.48 467.798C519.801 468.054 520.185 468.182 520.631 468.182C520.989 468.182 521.307 468.098 521.585 467.93C521.866 467.763 522.087 467.533 522.246 467.24C522.408 466.945 522.489 466.611 522.489 466.239C522.489 465.858 522.405 465.518 522.237 465.22C522.072 464.919 521.845 464.682 521.555 464.509C521.266 464.335 520.935 464.247 520.562 464.244C520.295 464.241 520.021 464.283 519.74 464.368C519.459 464.45 519.227 464.557 519.045 464.688L518.057 464.568L518.585 460.273H523.119V461.21H519.472L519.165 463.784H519.216C519.395 463.642 519.619 463.524 519.889 463.43C520.159 463.337 520.44 463.29 520.733 463.29C521.267 463.29 521.743 463.418 522.161 463.673C522.581 463.926 522.911 464.273 523.149 464.713C523.391 465.153 523.511 465.656 523.511 466.222C523.511 466.778 523.386 467.276 523.136 467.713C522.889 468.148 522.548 468.491 522.114 468.744C521.679 468.994 521.185 469.119 520.631 469.119ZM528.051 469.119C527.409 469.119 526.862 468.945 526.41 468.595C525.958 468.243 525.613 467.733 525.375 467.065C525.136 466.395 525.017 465.585 525.017 464.636C525.017 463.693 525.136 462.888 525.375 462.22C525.616 461.55 525.963 461.038 526.414 460.686C526.869 460.331 527.414 460.153 528.051 460.153C528.687 460.153 529.231 460.331 529.683 460.686C530.137 461.038 530.484 461.55 530.723 462.22C530.964 462.888 531.085 463.693 531.085 464.636C531.085 465.585 530.966 466.395 530.727 467.065C530.488 467.733 530.143 468.243 529.691 468.595C529.24 468.945 528.693 469.119 528.051 469.119ZM528.051 468.182C528.687 468.182 529.181 467.875 529.534 467.261C529.886 466.648 530.062 465.773 530.062 464.636C530.062 463.881 529.981 463.237 529.819 462.706C529.66 462.175 529.43 461.77 529.129 461.491C528.831 461.213 528.471 461.074 528.051 461.074C527.42 461.074 526.927 461.385 526.572 462.007C526.217 462.626 526.039 463.503 526.039 464.636C526.039 465.392 526.119 466.034 526.278 466.562C526.437 467.091 526.666 467.493 526.964 467.768C527.265 468.044 527.627 468.182 528.051 468.182Z" fill="black"/>
</g>
</g>
<g id="Nodo60">
<g id="EF_3">
<g id="Early_3">
<mask id="path-30-inside-9_41_2" fill="white">
<path d="M563.983 350.017C560.501 346.534 557.739 342.4 555.855 337.851C553.97 333.301 553 328.425 553 323.5C553 318.575 553.97 313.699 555.855 309.149C557.739 304.6 560.501 300.466 563.984 296.983L590.5 323.5L563.983 350.017Z"/>
</mask>
<path d="M563.983 350.017C560.501 346.534 557.739 342.4 555.855 337.851C553.97 333.301 553 328.425 553 323.5C553 318.575 553.97 313.699 555.855 309.149C557.739 304.6 560.501 300.466 563.984 296.983L590.5 323.5L563.983 350.017Z" fill="#D9D9D9" stroke="black" stroke-width="2" mask="url(#path-30-inside-9_41_2)"/>
</g>
<path id="0_7" d="M566.75 328.119C566.108 328.119 565.561 327.945 565.109 327.595C564.658 327.243 564.313 326.733 564.074 326.065C563.835 325.395 563.716 324.585 563.716 323.636C563.716 322.693 563.835 321.888 564.074 321.22C564.315 320.55 564.662 320.038 565.114 319.686C565.568 319.331 566.114 319.153 566.75 319.153C567.386 319.153 567.93 319.331 568.382 319.686C568.837 320.038 569.183 320.55 569.422 321.22C569.663 321.888 569.784 322.693 569.784 323.636C569.784 324.585 569.665 325.395 569.426 326.065C569.188 326.733 568.842 327.243 568.391 327.595C567.939 327.945 567.392 328.119 566.75 328.119ZM566.75 327.182C567.386 327.182 567.881 326.875 568.233 326.261C568.585 325.648 568.761 324.773 568.761 323.636C568.761 322.881 568.68 322.237 568.518 321.706C568.359 321.175 568.129 320.77 567.828 320.491C567.53 320.213 567.17 320.074 566.75 320.074C566.119 320.074 565.626 320.385 565.271 321.007C564.916 321.626 564.739 322.503 564.739 323.636C564.739 324.392 564.818 325.034 564.977 325.562C565.136 326.091 565.365 326.493 565.663 326.768C565.964 327.044 566.327 327.182 566.75 327.182Z" fill="black"/>
</g>
<g id="LF_3">
<g id="Latest_3">
<mask id="path-32-inside-10_41_2" fill="white">
<path d="M617.017 296.983C620.499 300.466 623.261 304.6 625.145 309.149C627.03 313.699 628 318.575 628 323.5C628 328.425 627.03 333.301 625.145 337.851C623.261 342.4 620.499 346.534 617.017 350.017L590.5 323.5L617.017 296.983Z"/>
</mask>
<path d="M617.017 296.983C620.499 300.466 623.261 304.6 625.145 309.149C627.03 313.699 628 318.575 628 323.5C628 328.425 627.03 333.301 625.145 337.851C623.261 342.4 620.499 346.534 617.017 350.017L590.5 323.5L617.017 296.983Z" fill="#D9D9D9" stroke="black" stroke-width="2" mask="url(#path-32-inside-10_41_2)"/>
</g>
<path id="0_8" d="M615.75 328.119C615.108 328.119 614.561 327.945 614.109 327.595C613.658 327.243 613.313 326.733 613.074 326.065C612.835 325.395 612.716 324.585 612.716 323.636C612.716 322.693 612.835 321.888 613.074 321.22C613.315 320.55 613.662 320.038 614.114 319.686C614.568 319.331 615.114 319.153 615.75 319.153C616.386 319.153 616.93 319.331 617.382 319.686C617.837 320.038 618.183 320.55 618.422 321.22C618.663 321.888 618.784 322.693 618.784 323.636C618.784 324.585 618.665 325.395 618.426 326.065C618.188 326.733 617.842 327.243 617.391 327.595C616.939 327.945 616.392 328.119 615.75 328.119ZM615.75 327.182C616.386 327.182 616.881 326.875 617.233 326.261C617.585 325.648 617.761 324.773 617.761 323.636C617.761 322.881 617.68 322.237 617.518 321.706C617.359 321.175 617.129 320.77 616.828 320.491C616.53 320.213 616.17 320.074 615.75 320.074C615.119 320.074 614.626 320.385 614.271 321.007C613.916 321.626 613.739 322.503 613.739 323.636C613.739 324.392 613.818 325.034 613.977 325.562C614.136 326.091 614.365 326.493 614.663 326.768C614.964 327.044 615.327 327.182 615.75 327.182Z" fill="black"/>
</g>
<g id="Holgura_5">
<g id="Holgura_6">
<mask id="path-34-inside-11_41_2" fill="white">
<path d="M617.017 350.017C613.534 353.499 609.4 356.261 604.851 358.145C600.301 360.03 595.425 361 590.5 361C585.575 361 580.699 360.03 576.149 358.145C571.6 356.261 567.466 353.499 563.983 350.016L590.5 323.5L617.017 350.017Z"/>
</mask>
<path d="M617.017 350.017C613.534 353.499 609.4 356.261 604.851 358.145C600.301 360.03 595.425 361 590.5 361C585.575 361 580.699 360.03 576.149 358.145C571.6 356.261 567.466 353.499 563.983 350.016L590.5 323.5L617.017 350.017Z" fill="#D9D9D9" stroke="black" stroke-width="2" mask="url(#path-34-inside-11_41_2)"/>
</g>
<path id="0_9" d="M590.75 351.119C590.108 351.119 589.561 350.945 589.109 350.595C588.658 350.243 588.313 349.733 588.074 349.065C587.835 348.395 587.716 347.585 587.716 346.636C587.716 345.693 587.835 344.888 588.074 344.22C588.315 343.55 588.662 343.038 589.114 342.686C589.568 342.331 590.114 342.153 590.75 342.153C591.386 342.153 591.93 342.331 592.382 342.686C592.837 343.038 593.183 343.55 593.422 344.22C593.663 344.888 593.784 345.693 593.784 346.636C593.784 347.585 593.665 348.395 593.426 349.065C593.188 349.733 592.842 350.243 592.391 350.595C591.939 350.945 591.392 351.119 590.75 351.119ZM590.75 350.182C591.386 350.182 591.881 349.875 592.233 349.261C592.585 348.648 592.761 347.773 592.761 346.636C592.761 345.881 592.68 345.237 592.518 344.706C592.359 344.175 592.129 343.77 591.828 343.491C591.53 343.213 591.17 343.074 590.75 343.074C590.119 343.074 589.626 343.385 589.271 344.007C588.916 344.626 588.739 345.503 588.739 346.636C588.739 347.392 588.818 348.034 588.977 348.562C589.136 349.091 589.365 349.493 589.663 349.768C589.964 350.044 590.327 350.182 590.75 350.182Z" fill="black"/>
</g>
<g id="Nombre_3">
<g id="NombreNodo_3">
<mask id="path-36-inside-12_41_2" fill="white">
<path d="M563.983 296.983C567.466 293.501 571.6 290.739 576.149 288.855C580.699 286.97 585.575 286 590.5 286C595.425 286 600.301 286.97 604.851 288.855C609.4 290.739 613.534 293.501 617.017 296.984L590.5 323.5L563.983 296.983Z"/>
</mask>
<path d="M563.983 296.983C567.466 293.501 571.6 290.739 576.149 288.855C580.699 286.97 585.575 286 590.5 286C595.425 286 600.301 286.97 604.851 288.855C609.4 290.739 613.534 293.501 617.017 296.984L590.5 323.5L563.983 296.983Z" fill="#D9D9D9" stroke="black" stroke-width="2" mask="url(#path-36-inside-12_41_2)"/>
</g>
<path id="60" d="M586.801 305.119C586.443 305.114 586.085 305.045 585.727 304.915C585.369 304.784 585.043 304.564 584.747 304.254C584.452 303.942 584.214 303.52 584.036 302.989C583.857 302.455 583.767 301.784 583.767 300.977C583.767 300.205 583.839 299.52 583.984 298.923C584.129 298.324 584.339 297.82 584.615 297.411C584.891 296.999 585.223 296.686 585.612 296.473C586.004 296.26 586.446 296.153 586.938 296.153C587.426 296.153 587.861 296.251 588.241 296.447C588.625 296.641 588.938 296.911 589.179 297.257C589.42 297.604 589.577 298.003 589.648 298.455H588.608C588.511 298.062 588.324 297.737 588.045 297.479C587.767 297.22 587.398 297.091 586.938 297.091C586.261 297.091 585.729 297.385 585.339 297.973C584.953 298.561 584.759 299.386 584.756 300.449H584.824C584.983 300.207 585.172 300.001 585.391 299.831C585.612 299.658 585.857 299.524 586.124 299.43C586.391 299.337 586.673 299.29 586.972 299.29C587.472 299.29 587.929 299.415 588.344 299.665C588.759 299.912 589.091 300.254 589.341 300.692C589.591 301.126 589.716 301.625 589.716 302.188C589.716 302.727 589.595 303.222 589.354 303.67C589.112 304.116 588.773 304.472 588.335 304.736C587.901 304.997 587.389 305.125 586.801 305.119ZM586.801 304.182C587.159 304.182 587.48 304.092 587.764 303.913C588.051 303.734 588.277 303.494 588.442 303.193C588.609 302.892 588.693 302.557 588.693 302.188C588.693 301.827 588.612 301.499 588.45 301.203C588.291 300.905 588.071 300.668 587.79 300.491C587.511 300.315 587.193 300.227 586.835 300.227C586.565 300.227 586.314 300.281 586.081 300.389C585.848 300.494 585.643 300.639 585.467 300.824C585.294 301.009 585.158 301.22 585.058 301.459C584.959 301.695 584.909 301.943 584.909 302.205C584.909 302.551 584.99 302.875 585.152 303.176C585.317 303.477 585.541 303.72 585.825 303.905C586.112 304.089 586.438 304.182 586.801 304.182ZM594.238 305.119C593.596 305.119 593.049 304.945 592.598 304.595C592.146 304.243 591.801 303.733 591.562 303.065C591.324 302.395 591.204 301.585 591.204 300.636C591.204 299.693 591.324 298.888 591.562 298.22C591.804 297.55 592.15 297.038 592.602 296.686C593.056 296.331 593.602 296.153 594.238 296.153C594.875 296.153 595.419 296.331 595.87 296.686C596.325 297.038 596.672 297.55 596.91 298.22C597.152 298.888 597.272 299.693 597.272 300.636C597.272 301.585 597.153 302.395 596.914 303.065C596.676 303.733 596.331 304.243 595.879 304.595C595.427 304.945 594.88 305.119 594.238 305.119ZM594.238 304.182C594.875 304.182 595.369 303.875 595.721 303.261C596.074 302.648 596.25 301.773 596.25 300.636C596.25 299.881 596.169 299.237 596.007 298.706C595.848 298.175 595.618 297.77 595.316 297.491C595.018 297.213 594.659 297.074 594.238 297.074C593.608 297.074 593.115 297.385 592.76 298.007C592.404 298.626 592.227 299.503 592.227 300.636C592.227 301.392 592.306 302.034 592.466 302.562C592.625 303.091 592.853 303.493 593.152 303.768C593.453 304.044 593.815 304.182 594.238 304.182Z" fill="black"/>
</g>
</g>
<g id="Nodo80">
<g id="EF_4">
<g id="Early_4">
<mask id="path-38-inside-13_41_2" fill="white">
<path d="M633.983 200.017C630.501 196.534 627.739 192.4 625.855 187.851C623.97 183.301 623 178.425 623 173.5C623 168.575 623.97 163.699 625.855 159.149C627.739 154.6 630.501 150.466 633.984 146.983L660.5 173.5L633.983 200.017Z"/>
</mask>
<path d="M633.983 200.017C630.501 196.534 627.739 192.4 625.855 187.851C623.97 183.301 623 178.425 623 173.5C623 168.575 623.97 163.699 625.855 159.149C627.739 154.6 630.501 150.466 633.984 146.983L660.5 173.5L633.983 200.017Z" fill="#D9D9D9" stroke="black" stroke-width="2" mask="url(#path-38-inside-13_41_2)"/>
</g>
<path id="0_10" d="M636.75 178.119C636.108 178.119 635.561 177.945 635.109 177.595C634.658 177.243 634.313 176.733 634.074 176.065C633.835 175.395 633.716 174.585 633.716 173.636C633.716 172.693 633.835 171.888 634.074 171.22C634.315 170.55 634.662 170.038 635.114 169.686C635.568 169.331 636.114 169.153 636.75 169.153C637.386 169.153 637.93 169.331 638.382 169.686C638.837 170.038 639.183 170.55 639.422 171.22C639.663 171.888 639.784 172.693 639.784 173.636C639.784 174.585 639.665 175.395 639.426 176.065C639.188 176.733 638.842 177.243 638.391 177.595C637.939 177.945 637.392 178.119 636.75 178.119ZM636.75 177.182C637.386 177.182 637.881 176.875 638.233 176.261C638.585 175.648 638.761 174.773 638.761 173.636C638.761 172.881 638.68 172.237 638.518 171.706C638.359 171.175 638.129 170.77 637.828 170.491C637.53 170.213 637.17 170.074 636.75 170.074C636.119 170.074 635.626 170.385 635.271 171.007C634.916 171.626 634.739 172.503 634.739 173.636C634.739 174.392 634.818 175.034 634.977 175.562C635.136 176.091 635.365 176.493 635.663 176.768C635.964 177.044 636.327 177.182 636.75 177.182Z" fill="black"/>
</g>
<g id="LF_4">
<g id="Latest_4">
<mask id="path-40-inside-14_41_2" fill="white">
<path d="M687.017 146.983C690.499 150.466 693.261 154.6 695.145 159.149C697.03 163.699 698 168.575 698 173.5C698 178.425 697.03 183.301 695.145 187.851C693.261 192.4 690.499 196.534 687.017 200.017L660.5 173.5L687.017 146.983Z"/>
</mask>
<path d="M687.017 146.983C690.499 150.466 693.261 154.6 695.145 159.149C697.03 163.699 698 168.575 698 173.5C698 178.425 697.03 183.301 695.145 187.851C693.261 192.4 690.499 196.534 687.017 200.017L660.5 173.5L687.017 146.983Z" fill="#D9D9D9" stroke="black" stroke-width="2" mask="url(#path-40-inside-14_41_2)"/>
</g>
<path id="0_11" d="M685.75 178.119C685.108 178.119 684.561 177.945 684.109 177.595C683.658 177.243 683.313 176.733 683.074 176.065C682.835 175.395 682.716 174.585 682.716 173.636C682.716 172.693 682.835 171.888 683.074 171.22C683.315 170.55 683.662 170.038 684.114 169.686C684.568 169.331 685.114 169.153 685.75 169.153C686.386 169.153 686.93 169.331 687.382 169.686C687.837 170.038 688.183 170.55 688.422 171.22C688.663 171.888 688.784 172.693 688.784 173.636C688.784 174.585 688.665 175.395 688.426 176.065C688.188 176.733 687.842 177.243 687.391 177.595C686.939 177.945 686.392 178.119 685.75 178.119ZM685.75 177.182C686.386 177.182 686.881 176.875 687.233 176.261C687.585 175.648 687.761 174.773 687.761 173.636C687.761 172.881 687.68 172.237 687.518 171.706C687.359 171.175 687.129 170.77 686.828 170.491C686.53 170.213 686.17 170.074 685.75 170.074C685.119 170.074 684.626 170.385 684.271 171.007C683.916 171.626 683.739 172.503 683.739 173.636C683.739 174.392 683.818 175.034 683.977 175.562C684.136 176.091 684.365 176.493 684.663 176.768C684.964 177.044 685.327 177.182 685.75 177.182Z" fill="black"/>
</g>
<g id="Holgura_7">
<g id="Holgura_8">
<mask id="path-42-inside-15_41_2" fill="white">
<path d="M687.017 200.017C683.534 203.499 679.4 206.261 674.851 208.145C670.301 210.03 665.425 211 660.5 211C655.575 211 650.699 210.03 646.149 208.145C641.6 206.261 637.466 203.499 633.983 200.016L660.5 173.5L687.017 200.017Z"/>
</mask>
<path d="M687.017 200.017C683.534 203.499 679.4 206.261 674.851 208.145C670.301 210.03 665.425 211 660.5 211C655.575 211 650.699 210.03 646.149 208.145C641.6 206.261 637.466 203.499 633.983 200.016L660.5 173.5L687.017 200.017Z" fill="#D9D9D9" stroke="black" stroke-width="2" mask="url(#path-42-inside-15_41_2)"/>
</g>
<path id="0_12" d="M660.75 201.119C660.108 201.119 659.561 200.945 659.109 200.595C658.658 200.243 658.313 199.733 658.074 199.065C657.835 198.395 657.716 197.585 657.716 196.636C657.716 195.693 657.835 194.888 658.074 194.22C658.315 193.55 658.662 193.038 659.114 192.686C659.568 192.331 660.114 192.153 660.75 192.153C661.386 192.153 661.93 192.331 662.382 192.686C662.837 193.038 663.183 193.55 663.422 194.22C663.663 194.888 663.784 195.693 663.784 196.636C663.784 197.585 663.665 198.395 663.426 199.065C663.188 199.733 662.842 200.243 662.391 200.595C661.939 200.945 661.392 201.119 660.75 201.119ZM660.75 200.182C661.386 200.182 661.881 199.875 662.233 199.261C662.585 198.648 662.761 197.773 662.761 196.636C662.761 195.881 662.68 195.237 662.518 194.706C662.359 194.175 662.129 193.77 661.828 193.491C661.53 193.213 661.17 193.074 660.75 193.074C660.119 193.074 659.626 193.385 659.271 194.007C658.916 194.626 658.739 195.503 658.739 196.636C658.739 197.392 658.818 198.034 658.977 198.562C659.136 199.091 659.365 199.493 659.663 199.768C659.964 200.044 660.327 200.182 660.75 200.182Z" fill="black"/>
</g>
<g id="Nombre_4">
<g id="NombreNodo_4">
<mask id="path-44-inside-16_41_2" fill="white">
<path d="M633.983 146.983C637.466 143.501 641.6 140.739 646.149 138.855C650.699 136.97 655.575 136 660.5 136C665.425 136 670.301 136.97 674.851 138.855C679.4 140.739 683.534 143.501 687.017 146.984L660.5 173.5L633.983 146.983Z"/>
</mask>
<path d="M633.983 146.983C637.466 143.501 641.6 140.739 646.149 138.855C650.699 136.97 655.575 136 660.5 136C665.425 136 670.301 136.97 674.851 138.855C679.4 140.739 683.534 143.501 687.017 146.984L660.5 173.5L633.983 146.983Z" fill="#D9D9D9" stroke="black" stroke-width="2" mask="url(#path-44-inside-16_41_2)"/>
</g>
<path id="10_2" d="M656.699 155.119C656.114 155.119 655.597 155.016 655.148 154.808C654.702 154.598 654.354 154.31 654.104 153.943C653.854 153.574 653.73 153.153 653.733 152.682C653.73 152.312 653.803 151.972 653.95 151.659C654.098 151.344 654.3 151.081 654.555 150.871C654.814 150.658 655.102 150.523 655.42 150.466V150.415C655.003 150.307 654.67 150.072 654.423 149.712C654.176 149.348 654.054 148.935 654.057 148.472C654.054 148.028 654.166 147.632 654.393 147.283C654.621 146.933 654.933 146.658 655.331 146.456C655.732 146.254 656.188 146.153 656.699 146.153C657.205 146.153 657.656 146.254 658.054 146.456C658.452 146.658 658.764 146.933 658.991 147.283C659.222 147.632 659.338 148.028 659.341 148.472C659.338 148.935 659.212 149.348 658.962 149.712C658.714 150.072 658.386 150.307 657.977 150.415V150.466C658.293 150.523 658.577 150.658 658.83 150.871C659.082 151.081 659.284 151.344 659.435 151.659C659.585 151.972 659.662 152.312 659.665 152.682C659.662 153.153 659.534 153.574 659.281 153.943C659.031 154.31 658.683 154.598 658.237 154.808C657.794 155.016 657.281 155.119 656.699 155.119ZM656.699 154.182C657.094 154.182 657.435 154.118 657.722 153.99C658.009 153.862 658.23 153.682 658.386 153.449C658.543 153.216 658.622 152.943 658.625 152.631C658.622 152.301 658.537 152.01 658.369 151.757C658.202 151.504 657.973 151.305 657.683 151.161C657.396 151.016 657.068 150.943 656.699 150.943C656.327 150.943 655.994 151.016 655.702 151.161C655.412 151.305 655.183 151.504 655.016 151.757C654.851 152.01 654.77 152.301 654.773 152.631C654.77 152.943 654.845 153.216 654.999 153.449C655.155 153.682 655.378 153.862 655.668 153.99C655.957 154.118 656.301 154.182 656.699 154.182ZM656.699 150.04C657.011 150.04 657.288 149.977 657.53 149.852C657.774 149.727 657.966 149.553 658.105 149.328C658.244 149.104 658.315 148.841 658.318 148.54C658.315 148.244 658.246 147.987 658.109 147.768C657.973 147.547 657.784 147.376 657.543 147.257C657.301 147.135 657.02 147.074 656.699 147.074C656.372 147.074 656.087 147.135 655.842 147.257C655.598 147.376 655.409 147.547 655.276 147.768C655.142 147.987 655.077 148.244 655.08 148.54C655.077 148.841 655.143 149.104 655.28 149.328C655.419 149.553 655.611 149.727 655.855 149.852C656.099 149.977 656.381 150.04 656.699 150.04ZM664.145 155.119C663.502 155.119 662.956 154.945 662.504 154.595C662.052 154.243 661.707 153.733 661.468 153.065C661.23 152.395 661.11 151.585 661.11 150.636C661.11 149.693 661.23 148.888 661.468 148.22C661.71 147.55 662.056 147.038 662.508 146.686C662.963 146.331 663.508 146.153 664.145 146.153C664.781 146.153 665.325 146.331 665.777 146.686C666.231 147.038 666.578 147.55 666.816 148.22C667.058 148.888 667.179 149.693 667.179 150.636C667.179 151.585 667.059 152.395 666.821 153.065C666.582 153.733 666.237 154.243 665.785 154.595C665.333 154.945 664.787 155.119 664.145 155.119ZM664.145 154.182C664.781 154.182 665.275 153.875 665.627 153.261C665.98 152.648 666.156 151.773 666.156 150.636C666.156 149.881 666.075 149.237 665.913 148.706C665.754 148.175 665.524 147.77 665.223 147.491C664.924 147.213 664.565 147.074 664.145 147.074C663.514 147.074 663.021 147.385 662.666 148.007C662.311 148.626 662.133 149.503 662.133 150.636C662.133 151.392 662.213 152.034 662.372 152.562C662.531 153.091 662.76 153.493 663.058 153.768C663.359 154.044 663.721 154.182 664.145 154.182Z" fill="black"/>
</g>
</g>
<g id="Nodo90">
<g id="EF_5">
<g id="Early_5">
<mask id="path-46-inside-17_41_2" fill="white">
<path d="M798.983 341.017C795.501 337.534 792.739 333.4 790.855 328.851C788.97 324.301 788 319.425 788 314.5C788 309.575 788.97 304.699 790.855 300.149C792.739 295.6 795.501 291.466 798.984 287.983L825.5 314.5L798.983 341.017Z"/>
</mask>
<path d="M798.983 341.017C795.501 337.534 792.739 333.4 790.855 328.851C788.97 324.301 788 319.425 788 314.5C788 309.575 788.97 304.699 790.855 300.149C792.739 295.6 795.501 291.466 798.984 287.983L825.5 314.5L798.983 341.017Z" fill="#D9D9D9" stroke="black" stroke-width="2" mask="url(#path-46-inside-17_41_2)"/>
</g>
<path id="0_13" d="M801.75 319.119C801.108 319.119 800.561 318.945 800.109 318.595C799.658 318.243 799.313 317.733 799.074 317.065C798.835 316.395 798.716 315.585 798.716 314.636C798.716 313.693 798.835 312.888 799.074 312.22C799.315 311.55 799.662 311.038 800.114 310.686C800.568 310.331 801.114 310.153 801.75 310.153C802.386 310.153 802.93 310.331 803.382 310.686C803.837 311.038 804.183 311.55 804.422 312.22C804.663 312.888 804.784 313.693 804.784 314.636C804.784 315.585 804.665 316.395 804.426 317.065C804.188 317.733 803.842 318.243 803.391 318.595C802.939 318.945 802.392 319.119 801.75 319.119ZM801.75 318.182C802.386 318.182 802.881 317.875 803.233 317.261C803.585 316.648 803.761 315.773 803.761 314.636C803.761 313.881 803.68 313.237 803.518 312.706C803.359 312.175 803.129 311.77 802.828 311.491C802.53 311.213 802.17 311.074 801.75 311.074C801.119 311.074 800.626 311.385 800.271 312.007C799.916 312.626 799.739 313.503 799.739 314.636C799.739 315.392 799.818 316.034 799.977 316.562C800.136 317.091 800.365 317.493 800.663 317.768C800.964 318.044 801.327 318.182 801.75 318.182Z" fill="black"/>
</g>
<g id="LF_5">
<g id="Latest_5">
<mask id="path-48-inside-18_41_2" fill="white">
<path d="M852.017 287.983C855.499 291.466 858.261 295.6 860.145 300.149C862.03 304.699 863 309.575 863 314.5C863 319.425 862.03 324.301 860.145 328.851C858.261 333.4 855.499 337.534 852.017 341.017L825.5 314.5L852.017 287.983Z"/>
</mask>
<path d="M852.017 287.983C855.499 291.466 858.261 295.6 860.145 300.149C862.03 304.699 863 309.575 863 314.5C863 319.425 862.03 324.301 860.145 328.851C858.261 333.4 855.499 337.534 852.017 341.017L825.5 314.5L852.017 287.983Z" fill="#D9D9D9" stroke="black" stroke-width="2" mask="url(#path-48-inside-18_41_2)"/>
</g>
<path id="0_14" d="M850.75 319.119C850.108 319.119 849.561 318.945 849.109 318.595C848.658 318.243 848.313 317.733 848.074 317.065C847.835 316.395 847.716 315.585 847.716 314.636C847.716 313.693 847.835 312.888 848.074 312.22C848.315 311.55 848.662 311.038 849.114 310.686C849.568 310.331 850.114 310.153 850.75 310.153C851.386 310.153 851.93 310.331 852.382 310.686C852.837 311.038 853.183 311.55 853.422 312.22C853.663 312.888 853.784 313.693 853.784 314.636C853.784 315.585 853.665 316.395 853.426 317.065C853.188 317.733 852.842 318.243 852.391 318.595C851.939 318.945 851.392 319.119 850.75 319.119ZM850.75 318.182C851.386 318.182 851.881 317.875 852.233 317.261C852.585 316.648 852.761 315.773 852.761 314.636C852.761 313.881 852.68 313.237 852.518 312.706C852.359 312.175 852.129 311.77 851.828 311.491C851.53 311.213 851.17 311.074 850.75 311.074C850.119 311.074 849.626 311.385 849.271 312.007C848.916 312.626 848.739 313.503 848.739 314.636C848.739 315.392 848.818 316.034 848.977 316.562C849.136 317.091 849.365 317.493 849.663 317.768C849.964 318.044 850.327 318.182 850.75 318.182Z" fill="black"/>
</g>
<g id="Holgura_9">
<g id="Holgura_10">
<mask id="path-50-inside-19_41_2" fill="white">
<path d="M852.017 341.017C848.534 344.499 844.4 347.261 839.851 349.145C835.301 351.03 830.425 352 825.5 352C820.575 352 815.699 351.03 811.149 349.145C806.6 347.261 802.466 344.499 798.983 341.016L825.5 314.5L852.017 341.017Z"/>
</mask>
<path d="M852.017 341.017C848.534 344.499 844.4 347.261 839.851 349.145C835.301 351.03 830.425 352 825.5 352C820.575 352 815.699 351.03 811.149 349.145C806.6 347.261 802.466 344.499 798.983 341.016L825.5 314.5L852.017 341.017Z" fill="#D9D9D9" stroke="black" stroke-width="2" mask="url(#path-50-inside-19_41_2)"/>
</g>
<path id="0_15" d="M825.75 342.119C825.108 342.119 824.561 341.945 824.109 341.595C823.658 341.243 823.313 340.733 823.074 340.065C822.835 339.395 822.716 338.585 822.716 337.636C822.716 336.693 822.835 335.888 823.074 335.22C823.315 334.55 823.662 334.038 824.114 333.686C824.568 333.331 825.114 333.153 825.75 333.153C826.386 333.153 826.93 333.331 827.382 333.686C827.837 334.038 828.183 334.55 828.422 335.22C828.663 335.888 828.784 336.693 828.784 337.636C828.784 338.585 828.665 339.395 828.426 340.065C828.188 340.733 827.842 341.243 827.391 341.595C826.939 341.945 826.392 342.119 825.75 342.119ZM825.75 341.182C826.386 341.182 826.881 340.875 827.233 340.261C827.585 339.648 827.761 338.773 827.761 337.636C827.761 336.881 827.68 336.237 827.518 335.706C827.359 335.175 827.129 334.77 826.828 334.491C826.53 334.213 826.17 334.074 825.75 334.074C825.119 334.074 824.626 334.385 824.271 335.007C823.916 335.626 823.739 336.503 823.739 337.636C823.739 338.392 823.818 339.034 823.977 339.562C824.136 340.091 824.365 340.493 824.663 340.768C824.964 341.044 825.327 341.182 825.75 341.182Z" fill="black"/>
</g>
<g id="Nombre_5">
<g id="NombreNodo_5">
<mask id="path-52-inside-20_41_2" fill="white">
<path d="M798.983 287.983C802.466 284.501 806.6 281.739 811.149 279.855C815.699 277.97 820.575 277 825.5 277C830.425 277 835.301 277.97 839.851 279.855C844.4 281.739 848.534 284.501 852.017 287.984L825.5 314.5L798.983 287.983Z"/>
</mask>
<path d="M798.983 287.983C802.466 284.501 806.6 281.739 811.149 279.855C815.699 277.97 820.575 277 825.5 277C830.425 277 835.301 277.97 839.851 279.855C844.4 281.739 848.534 284.501 852.017 287.984L825.5 314.5L798.983 287.983Z" fill="#D9D9D9" stroke="black" stroke-width="2" mask="url(#path-52-inside-20_41_2)"/>
</g>
<path id="90" d="M821.682 287.153C822.04 287.156 822.398 287.224 822.756 287.358C823.114 287.491 823.44 287.713 823.736 288.023C824.031 288.33 824.268 288.749 824.447 289.28C824.626 289.811 824.716 290.477 824.716 291.278C824.716 292.054 824.642 292.743 824.494 293.345C824.349 293.945 824.139 294.45 823.864 294.862C823.591 295.274 823.259 295.587 822.866 295.8C822.477 296.013 822.037 296.119 821.545 296.119C821.057 296.119 820.621 296.023 820.237 295.83C819.857 295.634 819.544 295.362 819.3 295.016C819.058 294.666 818.903 294.261 818.835 293.801H819.875C819.969 294.202 820.155 294.533 820.433 294.794C820.714 295.053 821.085 295.182 821.545 295.182C822.219 295.182 822.75 294.888 823.139 294.3C823.531 293.712 823.727 292.881 823.727 291.807H823.659C823.5 292.045 823.311 292.251 823.092 292.425C822.874 292.598 822.631 292.732 822.364 292.825C822.097 292.919 821.813 292.966 821.511 292.966C821.011 292.966 820.553 292.842 820.135 292.595C819.72 292.345 819.388 292.003 819.138 291.568C818.891 291.131 818.767 290.631 818.767 290.068C818.767 289.534 818.886 289.045 819.125 288.602C819.366 288.156 819.705 287.801 820.139 287.537C820.577 287.273 821.091 287.145 821.682 287.153ZM821.682 288.091C821.324 288.091 821.001 288.18 820.714 288.359C820.43 288.536 820.205 288.774 820.037 289.075C819.872 289.374 819.79 289.705 819.79 290.068C819.79 290.432 819.869 290.763 820.028 291.061C820.19 291.357 820.411 291.592 820.689 291.768C820.97 291.942 821.29 292.028 821.648 292.028C821.918 292.028 822.169 291.976 822.402 291.871C822.635 291.763 822.838 291.616 823.011 291.432C823.188 291.244 823.325 291.033 823.425 290.797C823.524 290.558 823.574 290.31 823.574 290.051C823.574 289.71 823.491 289.391 823.327 289.092C823.165 288.794 822.94 288.553 822.653 288.368C822.369 288.183 822.045 288.091 821.682 288.091ZM829.238 296.119C828.596 296.119 828.049 295.945 827.598 295.595C827.146 295.243 826.801 294.733 826.562 294.065C826.324 293.395 826.204 292.585 826.204 291.636C826.204 290.693 826.324 289.888 826.562 289.22C826.804 288.55 827.15 288.038 827.602 287.686C828.056 287.331 828.602 287.153 829.238 287.153C829.875 287.153 830.419 287.331 830.87 287.686C831.325 288.038 831.672 288.55 831.91 289.22C832.152 289.888 832.272 290.693 832.272 291.636C832.272 292.585 832.153 293.395 831.914 294.065C831.676 294.733 831.331 295.243 830.879 295.595C830.427 295.945 829.88 296.119 829.238 296.119ZM829.238 295.182C829.875 295.182 830.369 294.875 830.721 294.261C831.074 293.648 831.25 292.773 831.25 291.636C831.25 290.881 831.169 290.237 831.007 289.706C830.848 289.175 830.618 288.77 830.316 288.491C830.018 288.213 829.659 288.074 829.238 288.074C828.608 288.074 828.115 288.385 827.76 289.007C827.404 289.626 827.227 290.503 827.227 291.636C827.227 292.392 827.306 293.034 827.466 293.562C827.625 294.091 827.853 294.493 828.152 294.768C828.453 295.044 828.815 295.182 829.238 295.182Z" fill="black"/>
</g>
</g>
<g id="Nodo30">
<g id="EF_6">
<g id="Early_6">
<mask id="path-54-inside-21_41_2" fill="white">
<path d="M362.983 205.017C359.501 201.534 356.739 197.4 354.855 192.851C352.97 188.301 352 183.425 352 178.5C352 173.575 352.97 168.699 354.855 164.149C356.739 159.6 359.501 155.466 362.984 151.983L389.5 178.5L362.983 205.017Z"/>
</mask>
<path d="M362.983 205.017C359.501 201.534 356.739 197.4 354.855 192.851C352.97 188.301 352 183.425 352 178.5C352 173.575 352.97 168.699 354.855 164.149C356.739 159.6 359.501 155.466 362.984 151.983L389.5 178.5L362.983 205.017Z" fill="#D9D9D9" stroke="black" stroke-width="2" mask="url(#path-54-inside-21_41_2)"/>
</g>
<path id="0_16" d="M365.75 183.119C365.108 183.119 364.561 182.945 364.109 182.595C363.658 182.243 363.313 181.733 363.074 181.065C362.835 180.395 362.716 179.585 362.716 178.636C362.716 177.693 362.835 176.888 363.074 176.22C363.315 175.55 363.662 175.038 364.114 174.686C364.568 174.331 365.114 174.153 365.75 174.153C366.386 174.153 366.93 174.331 367.382 174.686C367.837 175.038 368.183 175.55 368.422 176.22C368.663 176.888 368.784 177.693 368.784 178.636C368.784 179.585 368.665 180.395 368.426 181.065C368.188 181.733 367.842 182.243 367.391 182.595C366.939 182.945 366.392 183.119 365.75 183.119ZM365.75 182.182C366.386 182.182 366.881 181.875 367.233 181.261C367.585 180.648 367.761 179.773 367.761 178.636C367.761 177.881 367.68 177.237 367.518 176.706C367.359 176.175 367.129 175.77 366.828 175.491C366.53 175.213 366.17 175.074 365.75 175.074C365.119 175.074 364.626 175.385 364.271 176.007C363.916 176.626 363.739 177.503 363.739 178.636C363.739 179.392 363.818 180.034 363.977 180.562C364.136 181.091 364.365 181.493 364.663 181.768C364.964 182.044 365.327 182.182 365.75 182.182Z" fill="black"/>
</g>
<g id="LF_6">
<g id="Latest_6">
<mask id="path-56-inside-22_41_2" fill="white">
<path d="M416.017 151.983C419.499 155.466 422.261 159.6 424.145 164.149C426.03 168.699 427 173.575 427 178.5C427 183.425 426.03 188.301 424.145 192.851C422.261 197.4 419.499 201.534 416.017 205.017L389.5 178.5L416.017 151.983Z"/>
</mask>
<path d="M416.017 151.983C419.499 155.466 422.261 159.6 424.145 164.149C426.03 168.699 427 173.575 427 178.5C427 183.425 426.03 188.301 424.145 192.851C422.261 197.4 419.499 201.534 416.017 205.017L389.5 178.5L416.017 151.983Z" fill="#D9D9D9" stroke="black" stroke-width="2" mask="url(#path-56-inside-22_41_2)"/>
</g>
<path id="0_17" d="M414.75 183.119C414.108 183.119 413.561 182.945 413.109 182.595C412.658 182.243 412.313 181.733 412.074 181.065C411.835 180.395 411.716 179.585 411.716 178.636C411.716 177.693 411.835 176.888 412.074 176.22C412.315 175.55 412.662 175.038 413.114 174.686C413.568 174.331 414.114 174.153 414.75 174.153C415.386 174.153 415.93 174.331 416.382 174.686C416.837 175.038 417.183 175.55 417.422 176.22C417.663 176.888 417.784 177.693 417.784 178.636C417.784 179.585 417.665 180.395 417.426 181.065C417.188 181.733 416.842 182.243 416.391 182.595C415.939 182.945 415.392 183.119 414.75 183.119ZM414.75 182.182C415.386 182.182 415.881 181.875 416.233 181.261C416.585 180.648 416.761 179.773 416.761 178.636C416.761 177.881 416.68 177.237 416.518 176.706C416.359 176.175 416.129 175.77 415.828 175.491C415.53 175.213 415.17 175.074 414.75 175.074C414.119 175.074 413.626 175.385 413.271 176.007C412.916 176.626 412.739 177.503 412.739 178.636C412.739 179.392 412.818 180.034 412.977 180.562C413.136 181.091 413.365 181.493 413.663 181.768C413.964 182.044 414.327 182.182 414.75 182.182Z" fill="black"/>
</g>
<g id="Holgura_11">
<g id="Holgura_12">
<mask id="path-58-inside-23_41_2" fill="white">
<path d="M416.017 205.017C412.534 208.499 408.4 211.261 403.851 213.145C399.301 215.03 394.425 216 389.5 216C384.575 216 379.699 215.03 375.149 213.145C370.6 211.261 366.466 208.499 362.983 205.016L389.5 178.5L416.017 205.017Z"/>
</mask>
<path d="M416.017 205.017C412.534 208.499 408.4 211.261 403.851 213.145C399.301 215.03 394.425 216 389.5 216C384.575 216 379.699 215.03 375.149 213.145C370.6 211.261 366.466 208.499 362.983 205.016L389.5 178.5L416.017 205.017Z" fill="#D9D9D9" stroke="black" stroke-width="2" mask="url(#path-58-inside-23_41_2)"/>
</g>
<path id="0_18" d="M389.75 206.119C389.108 206.119 388.561 205.945 388.109 205.595C387.658 205.243 387.313 204.733 387.074 204.065C386.835 203.395 386.716 202.585 386.716 201.636C386.716 200.693 386.835 199.888 387.074 199.22C387.315 198.55 387.662 198.038 388.114 197.686C388.568 197.331 389.114 197.153 389.75 197.153C390.386 197.153 390.93 197.331 391.382 197.686C391.837 198.038 392.183 198.55 392.422 199.22C392.663 199.888 392.784 200.693 392.784 201.636C392.784 202.585 392.665 203.395 392.426 204.065C392.188 204.733 391.842 205.243 391.391 205.595C390.939 205.945 390.392 206.119 389.75 206.119ZM389.75 205.182C390.386 205.182 390.881 204.875 391.233 204.261C391.585 203.648 391.761 202.773 391.761 201.636C391.761 200.881 391.68 200.237 391.518 199.706C391.359 199.175 391.129 198.77 390.828 198.491C390.53 198.213 390.17 198.074 389.75 198.074C389.119 198.074 388.626 198.385 388.271 199.007C387.916 199.626 387.739 200.503 387.739 201.636C387.739 202.392 387.818 203.034 387.977 203.562C388.136 204.091 388.365 204.493 388.663 204.768C388.964 205.044 389.327 205.182 389.75 205.182Z" fill="black"/>
</g>
<g id="Nombre_6">
<g id="NombreNodo_6">
<mask id="path-60-inside-24_41_2" fill="white">
<path d="M362.983 151.983C366.466 148.501 370.6 145.739 375.149 143.855C379.699 141.97 384.575 141 389.5 141C394.425 141 399.301 141.97 403.851 143.855C408.4 145.739 412.534 148.501 416.017 151.984L389.5 178.5L362.983 151.983Z"/>
</mask>
<path d="M362.983 151.983C366.466 148.501 370.6 145.739 375.149 143.855C379.699 141.97 384.575 141 389.5 141C394.425 141 399.301 141.97 403.851 143.855C408.4 145.739 412.534 148.501 416.017 151.984L389.5 178.5L362.983 151.983Z" fill="#D9D9D9" stroke="black" stroke-width="2" mask="url(#path-60-inside-24_41_2)"/>
</g>
<path id="30" d="M385.852 160.119C385.29 160.119 384.788 160.023 384.348 159.83C383.911 159.636 383.563 159.368 383.304 159.024C383.048 158.678 382.909 158.276 382.886 157.818H383.96C383.983 158.099 384.08 158.342 384.25 158.547C384.42 158.749 384.643 158.905 384.919 159.016C385.195 159.126 385.5 159.182 385.835 159.182C386.21 159.182 386.543 159.116 386.832 158.986C387.122 158.855 387.349 158.673 387.514 158.44C387.679 158.207 387.761 157.938 387.761 157.631C387.761 157.31 387.682 157.027 387.523 156.783C387.364 156.536 387.131 156.342 386.824 156.203C386.517 156.064 386.142 155.994 385.699 155.994H385V155.057H385.699C386.045 155.057 386.349 154.994 386.611 154.869C386.875 154.744 387.081 154.568 387.229 154.341C387.379 154.114 387.455 153.847 387.455 153.54C387.455 153.244 387.389 152.987 387.259 152.768C387.128 152.55 386.943 152.379 386.705 152.257C386.469 152.135 386.19 152.074 385.869 152.074C385.568 152.074 385.284 152.129 385.017 152.24C384.753 152.348 384.537 152.506 384.369 152.713C384.202 152.918 384.111 153.165 384.097 153.455H383.074C383.091 152.997 383.229 152.597 383.487 152.253C383.746 151.906 384.084 151.636 384.501 151.443C384.922 151.25 385.384 151.153 385.886 151.153C386.426 151.153 386.889 151.263 387.276 151.482C387.662 151.697 387.959 151.983 388.166 152.338C388.374 152.693 388.477 153.077 388.477 153.489C388.477 153.98 388.348 154.399 388.089 154.746C387.834 155.092 387.486 155.332 387.045 155.466V155.534C387.597 155.625 388.027 155.859 388.337 156.237C388.646 156.612 388.801 157.077 388.801 157.631C388.801 158.105 388.672 158.531 388.413 158.909C388.158 159.284 387.808 159.58 387.365 159.795C386.922 160.011 386.418 160.119 385.852 160.119ZM393.391 160.119C392.749 160.119 392.202 159.945 391.75 159.595C391.298 159.243 390.953 158.733 390.714 158.065C390.476 157.395 390.357 156.585 390.357 155.636C390.357 154.693 390.476 153.888 390.714 153.22C390.956 152.55 391.303 152.038 391.754 151.686C392.209 151.331 392.754 151.153 393.391 151.153C394.027 151.153 394.571 151.331 395.023 151.686C395.477 152.038 395.824 152.55 396.062 153.22C396.304 153.888 396.425 154.693 396.425 155.636C396.425 156.585 396.305 157.395 396.067 158.065C395.828 158.733 395.483 159.243 395.031 159.595C394.58 159.945 394.033 160.119 393.391 160.119ZM393.391 159.182C394.027 159.182 394.521 158.875 394.874 158.261C395.226 157.648 395.402 156.773 395.402 155.636C395.402 154.881 395.321 154.237 395.159 153.706C395 153.175 394.77 152.77 394.469 152.491C394.17 152.213 393.811 152.074 393.391 152.074C392.76 152.074 392.267 152.385 391.912 153.007C391.557 153.626 391.379 154.503 391.379 155.636C391.379 156.392 391.459 157.034 391.618 157.562C391.777 158.091 392.006 158.493 392.304 158.768C392.605 159.044 392.967 159.182 393.391 159.182Z" fill="black"/>
</g>
</g>
<g id="Nodo10">
<g id="EF_7">
<g id="Early_7">
<mask id="path-62-inside-25_41_2" fill="white">
<path d="M194.983 205.017C191.501 201.534 188.739 197.4 186.855 192.851C184.97 188.301 184 183.425 184 178.5C184 173.575 184.97 168.699 186.855 164.149C188.739 159.6 191.501 155.466 194.984 151.983L221.5 178.5L194.983 205.017Z"/>
</mask>
<path d="M194.983 205.017C191.501 201.534 188.739 197.4 186.855 192.851C184.97 188.301 184 183.425 184 178.5C184 173.575 184.97 168.699 186.855 164.149C188.739 159.6 191.501 155.466 194.984 151.983L221.5 178.5L194.983 205.017Z" fill="#D9D9D9" stroke="black" stroke-width="2" mask="url(#path-62-inside-25_41_2)"/>
</g>
<path id="0_19" d="M197.75 183.119C197.108 183.119 196.561 182.945 196.109 182.595C195.658 182.243 195.313 181.733 195.074 181.065C194.835 180.395 194.716 179.585 194.716 178.636C194.716 177.693 194.835 176.888 195.074 176.22C195.315 175.55 195.662 175.038 196.114 174.686C196.568 174.331 197.114 174.153 197.75 174.153C198.386 174.153 198.93 174.331 199.382 174.686C199.837 175.038 200.183 175.55 200.422 176.22C200.663 176.888 200.784 177.693 200.784 178.636C200.784 179.585 200.665 180.395 200.426 181.065C200.188 181.733 199.842 182.243 199.391 182.595C198.939 182.945 198.392 183.119 197.75 183.119ZM197.75 182.182C198.386 182.182 198.881 181.875 199.233 181.261C199.585 180.648 199.761 179.773 199.761 178.636C199.761 177.881 199.68 177.237 199.518 176.706C199.359 176.175 199.129 175.77 198.828 175.491C198.53 175.213 198.17 175.074 197.75 175.074C197.119 175.074 196.626 175.385 196.271 176.007C195.916 176.626 195.739 177.503 195.739 178.636C195.739 179.392 195.818 180.034 195.977 180.562C196.136 181.091 196.365 181.493 196.663 181.768C196.964 182.044 197.327 182.182 197.75 182.182Z" fill="black"/>
</g>
<g id="LF_7">
<g id="Latest_7">
<mask id="path-64-inside-26_41_2" fill="white">
<path d="M248.017 151.983C251.499 155.466 254.261 159.6 256.145 164.149C258.03 168.699 259 173.575 259 178.5C259 183.425 258.03 188.301 256.145 192.851C254.261 197.4 251.499 201.534 248.017 205.017L221.5 178.5L248.017 151.983Z"/>
</mask>
<path d="M248.017 151.983C251.499 155.466 254.261 159.6 256.145 164.149C258.03 168.699 259 173.575 259 178.5C259 183.425 258.03 188.301 256.145 192.851C254.261 197.4 251.499 201.534 248.017 205.017L221.5 178.5L248.017 151.983Z" fill="#D9D9D9" stroke="black" stroke-width="2" mask="url(#path-64-inside-26_41_2)"/>
</g>
<path id="0_20" d="M246.75 183.119C246.108 183.119 245.561 182.945 245.109 182.595C244.658 182.243 244.313 181.733 244.074 181.065C243.835 180.395 243.716 179.585 243.716 178.636C243.716 177.693 243.835 176.888 244.074 176.22C244.315 175.55 244.662 175.038 245.114 174.686C245.568 174.331 246.114 174.153 246.75 174.153C247.386 174.153 247.93 174.331 248.382 174.686C248.837 175.038 249.183 175.55 249.422 176.22C249.663 176.888 249.784 177.693 249.784 178.636C249.784 179.585 249.665 180.395 249.426 181.065C249.188 181.733 248.842 182.243 248.391 182.595C247.939 182.945 247.392 183.119 246.75 183.119ZM246.75 182.182C247.386 182.182 247.881 181.875 248.233 181.261C248.585 180.648 248.761 179.773 248.761 178.636C248.761 177.881 248.68 177.237 248.518 176.706C248.359 176.175 248.129 175.77 247.828 175.491C247.53 175.213 247.17 175.074 246.75 175.074C246.119 175.074 245.626 175.385 245.271 176.007C244.916 176.626 244.739 177.503 244.739 178.636C244.739 179.392 244.818 180.034 244.977 180.562C245.136 181.091 245.365 181.493 245.663 181.768C245.964 182.044 246.327 182.182 246.75 182.182Z" fill="black"/>
</g>
<g id="Holgura_13">
<g id="Holgura_14">
<mask id="path-66-inside-27_41_2" fill="white">
<path d="M248.017 205.017C244.534 208.499 240.4 211.261 235.851 213.145C231.301 215.03 226.425 216 221.5 216C216.575 216 211.699 215.03 207.149 213.145C202.6 211.261 198.466 208.499 194.983 205.016L221.5 178.5L248.017 205.017Z"/>
</mask>
<path d="M248.017 205.017C244.534 208.499 240.4 211.261 235.851 213.145C231.301 215.03 226.425 216 221.5 216C216.575 216 211.699 215.03 207.149 213.145C202.6 211.261 198.466 208.499 194.983 205.016L221.5 178.5L248.017 205.017Z" fill="#D9D9D9" stroke="black" stroke-width="2" mask="url(#path-66-inside-27_41_2)"/>
</g>
<path id="0_21" d="M221.75 206.119C221.108 206.119 220.561 205.945 220.109 205.595C219.658 205.243 219.313 204.733 219.074 204.065C218.835 203.395 218.716 202.585 218.716 201.636C218.716 200.693 218.835 199.888 219.074 199.22C219.315 198.55 219.662 198.038 220.114 197.686C220.568 197.331 221.114 197.153 221.75 197.153C222.386 197.153 222.93 197.331 223.382 197.686C223.837 198.038 224.183 198.55 224.422 199.22C224.663 199.888 224.784 200.693 224.784 201.636C224.784 202.585 224.665 203.395 224.426 204.065C224.188 204.733 223.842 205.243 223.391 205.595C222.939 205.945 222.392 206.119 221.75 206.119ZM221.75 205.182C222.386 205.182 222.881 204.875 223.233 204.261C223.585 203.648 223.761 202.773 223.761 201.636C223.761 200.881 223.68 200.237 223.518 199.706C223.359 199.175 223.129 198.77 222.828 198.491C222.53 198.213 222.17 198.074 221.75 198.074C221.119 198.074 220.626 198.385 220.271 199.007C219.916 199.626 219.739 200.503 219.739 201.636C219.739 202.392 219.818 203.034 219.977 203.562C220.136 204.091 220.365 204.493 220.663 204.768C220.964 205.044 221.327 205.182 221.75 205.182Z" fill="black"/>
</g>
<g id="Nombre_7">
<g id="NombreNodo_7">
<mask id="path-68-inside-28_41_2" fill="white">
<path d="M194.983 151.983C198.466 148.501 202.6 145.739 207.149 143.855C211.699 141.97 216.575 141 221.5 141C226.425 141 231.301 141.97 235.851 143.855C240.4 145.739 244.534 148.501 248.017 151.984L221.5 178.5L194.983 151.983Z"/>
</mask>
<path d="M194.983 151.983C198.466 148.501 202.6 145.739 207.149 143.855C211.699 141.97 216.575 141 221.5 141C226.425 141 231.301 141.97 235.851 143.855C240.4 145.739 244.534 148.501 248.017 151.984L221.5 178.5L194.983 151.983Z" fill="#D9D9D9" stroke="black" stroke-width="2" mask="url(#path-68-inside-28_41_2)"/>
</g>
<path id="10_3" d="M217.972 151.273V160H216.915V152.381H216.864L214.733 153.795V152.722L216.915 151.273H217.972ZM223.328 160.119C222.686 160.119 222.139 159.945 221.688 159.595C221.236 159.243 220.891 158.733 220.652 158.065C220.413 157.395 220.294 156.585 220.294 155.636C220.294 154.693 220.413 153.888 220.652 153.22C220.893 152.55 221.24 152.038 221.692 151.686C222.146 151.331 222.692 151.153 223.328 151.153C223.964 151.153 224.509 151.331 224.96 151.686C225.415 152.038 225.761 152.55 226 153.22C226.241 153.888 226.362 154.693 226.362 155.636C226.362 156.585 226.243 157.395 226.004 158.065C225.766 158.733 225.42 159.243 224.969 159.595C224.517 159.945 223.97 160.119 223.328 160.119ZM223.328 159.182C223.964 159.182 224.459 158.875 224.811 158.261C225.163 157.648 225.339 156.773 225.339 155.636C225.339 154.881 225.259 154.237 225.097 153.706C224.938 153.175 224.707 152.77 224.406 152.491C224.108 152.213 223.749 152.074 223.328 152.074C222.697 152.074 222.205 152.385 221.849 153.007C221.494 153.626 221.317 154.503 221.317 155.636C221.317 156.392 221.396 157.034 221.555 157.562C221.714 158.091 221.943 158.493 222.241 158.768C222.543 159.044 222.905 159.182 223.328 159.182Z" fill="black"/>
</g>
</g>
<g id="Nodo40">
<g id="EF_8">
<g id="Early_8">
<mask id="path-70-inside-29_41_2" fill="white">
<path d="M335.983 355.017C332.501 351.534 329.739 347.4 327.855 342.851C325.97 338.301 325 333.425 325 328.5C325 323.575 325.97 318.699 327.855 314.149C329.739 309.6 332.501 305.466 335.984 301.983L362.5 328.5L335.983 355.017Z"/>
</mask>
<path d="M335.983 355.017C332.501 351.534 329.739 347.4 327.855 342.851C325.97 338.301 325 333.425 325 328.5C325 323.575 325.97 318.699 327.855 314.149C329.739 309.6 332.501 305.466 335.984 301.983L362.5 328.5L335.983 355.017Z" fill="#D9D9D9" stroke="black" stroke-width="2" mask="url(#path-70-inside-29_41_2)"/>
</g>
<path id="0_22" d="M338.75 333.119C338.108 333.119 337.561 332.945 337.109 332.595C336.658 332.243 336.313 331.733 336.074 331.065C335.835 330.395 335.716 329.585 335.716 328.636C335.716 327.693 335.835 326.888 336.074 326.22C336.315 325.55 336.662 325.038 337.114 324.686C337.568 324.331 338.114 324.153 338.75 324.153C339.386 324.153 339.93 324.331 340.382 324.686C340.837 325.038 341.183 325.55 341.422 326.22C341.663 326.888 341.784 327.693 341.784 328.636C341.784 329.585 341.665 330.395 341.426 331.065C341.188 331.733 340.842 332.243 340.391 332.595C339.939 332.945 339.392 333.119 338.75 333.119ZM338.75 332.182C339.386 332.182 339.881 331.875 340.233 331.261C340.585 330.648 340.761 329.773 340.761 328.636C340.761 327.881 340.68 327.237 340.518 326.706C340.359 326.175 340.129 325.77 339.828 325.491C339.53 325.213 339.17 325.074 338.75 325.074C338.119 325.074 337.626 325.385 337.271 326.007C336.916 326.626 336.739 327.503 336.739 328.636C336.739 329.392 336.818 330.034 336.977 330.562C337.136 331.091 337.365 331.493 337.663 331.768C337.964 332.044 338.327 332.182 338.75 332.182Z" fill="black"/>
</g>
<g id="LF_8">
<g id="Latest_8">
<mask id="path-72-inside-30_41_2" fill="white">
<path d="M389.017 301.983C392.499 305.466 395.261 309.6 397.145 314.149C399.03 318.699 400 323.575 400 328.5C400 333.425 399.03 338.301 397.145 342.851C395.261 347.4 392.499 351.534 389.017 355.017L362.5 328.5L389.017 301.983Z"/>
</mask>
<path d="M389.017 301.983C392.499 305.466 395.261 309.6 397.145 314.149C399.03 318.699 400 323.575 400 328.5C400 333.425 399.03 338.301 397.145 342.851C395.261 347.4 392.499 351.534 389.017 355.017L362.5 328.5L389.017 301.983Z" fill="#D9D9D9" stroke="black" stroke-width="2" mask="url(#path-72-inside-30_41_2)"/>
</g>
<path id="0_23" d="M387.75 333.119C387.108 333.119 386.561 332.945 386.109 332.595C385.658 332.243 385.313 331.733 385.074 331.065C384.835 330.395 384.716 329.585 384.716 328.636C384.716 327.693 384.835 326.888 385.074 326.22C385.315 325.55 385.662 325.038 386.114 324.686C386.568 324.331 387.114 324.153 387.75 324.153C388.386 324.153 388.93 324.331 389.382 324.686C389.837 325.038 390.183 325.55 390.422 326.22C390.663 326.888 390.784 327.693 390.784 328.636C390.784 329.585 390.665 330.395 390.426 331.065C390.188 331.733 389.842 332.243 389.391 332.595C388.939 332.945 388.392 333.119 387.75 333.119ZM387.75 332.182C388.386 332.182 388.881 331.875 389.233 331.261C389.585 330.648 389.761 329.773 389.761 328.636C389.761 327.881 389.68 327.237 389.518 326.706C389.359 326.175 389.129 325.77 388.828 325.491C388.53 325.213 388.17 325.074 387.75 325.074C387.119 325.074 386.626 325.385 386.271 326.007C385.916 326.626 385.739 327.503 385.739 328.636C385.739 329.392 385.818 330.034 385.977 330.562C386.136 331.091 386.365 331.493 386.663 331.768C386.964 332.044 387.327 332.182 387.75 332.182Z" fill="black"/>
</g>
<g id="Holgura_15">
<g id="Holgura_16">
<mask id="path-74-inside-31_41_2" fill="white">
<path d="M389.017 355.017C385.534 358.499 381.4 361.261 376.851 363.145C372.301 365.03 367.425 366 362.5 366C357.575 366 352.699 365.03 348.149 363.145C343.6 361.261 339.466 358.499 335.983 355.016L362.5 328.5L389.017 355.017Z"/>
</mask>
<path d="M389.017 355.017C385.534 358.499 381.4 361.261 376.851 363.145C372.301 365.03 367.425 366 362.5 366C357.575 366 352.699 365.03 348.149 363.145C343.6 361.261 339.466 358.499 335.983 355.016L362.5 328.5L389.017 355.017Z" fill="#D9D9D9" stroke="black" stroke-width="2" mask="url(#path-74-inside-31_41_2)"/>
</g>
<path id="0_24" d="M362.75 356.119C362.108 356.119 361.561 355.945 361.109 355.595C360.658 355.243 360.313 354.733 360.074 354.065C359.835 353.395 359.716 352.585 359.716 351.636C359.716 350.693 359.835 349.888 360.074 349.22C360.315 348.55 360.662 348.038 361.114 347.686C361.568 347.331 362.114 347.153 362.75 347.153C363.386 347.153 363.93 347.331 364.382 347.686C364.837 348.038 365.183 348.55 365.422 349.22C365.663 349.888 365.784 350.693 365.784 351.636C365.784 352.585 365.665 353.395 365.426 354.065C365.188 354.733 364.842 355.243 364.391 355.595C363.939 355.945 363.392 356.119 362.75 356.119ZM362.75 355.182C363.386 355.182 363.881 354.875 364.233 354.261C364.585 353.648 364.761 352.773 364.761 351.636C364.761 350.881 364.68 350.237 364.518 349.706C364.359 349.175 364.129 348.77 363.828 348.491C363.53 348.213 363.17 348.074 362.75 348.074C362.119 348.074 361.626 348.385 361.271 349.007C360.916 349.626 360.739 350.503 360.739 351.636C360.739 352.392 360.818 353.034 360.977 353.562C361.136 354.091 361.365 354.493 361.663 354.768C361.964 355.044 362.327 355.182 362.75 355.182Z" fill="black"/>
</g>
<g id="Nombre_8">
<g id="NombreNodo_8">
<mask id="path-76-inside-32_41_2" fill="white">
<path d="M335.983 301.983C339.466 298.501 343.6 295.739 348.149 293.855C352.699 291.97 357.575 291 362.5 291C367.425 291 372.301 291.97 376.851 293.855C381.4 295.739 385.534 298.501 389.017 301.984L362.5 328.5L335.983 301.983Z"/>
</mask>
<path d="M335.983 301.983C339.466 298.501 343.6 295.739 348.149 293.855C352.699 291.97 357.575 291 362.5 291C367.425 291 372.301 291.97 376.851 293.855C381.4 295.739 385.534 298.501 389.017 301.984L362.5 328.5L335.983 301.983Z" fill="#D9D9D9" stroke="black" stroke-width="2" mask="url(#path-76-inside-32_41_2)"/>
</g>
<path id="40" d="M355.699 308.21V307.341L359.534 301.273H360.165V302.619H359.739L356.841 307.205V307.273H362.006V308.21H355.699ZM359.807 310V307.946V307.541V301.273H360.812V310H359.807ZM366.449 310.119C365.807 310.119 365.26 309.945 364.809 309.595C364.357 309.243 364.012 308.733 363.773 308.065C363.534 307.395 363.415 306.585 363.415 305.636C363.415 304.693 363.534 303.888 363.773 303.22C364.015 302.55 364.361 302.038 364.813 301.686C365.267 301.331 365.813 301.153 366.449 301.153C367.086 301.153 367.63 301.331 368.081 301.686C368.536 302.038 368.882 302.55 369.121 303.22C369.363 303.888 369.483 304.693 369.483 305.636C369.483 306.585 369.364 307.395 369.125 308.065C368.887 308.733 368.542 309.243 368.09 309.595C367.638 309.945 367.091 310.119 366.449 310.119ZM366.449 309.182C367.086 309.182 367.58 308.875 367.932 308.261C368.284 307.648 368.461 306.773 368.461 305.636C368.461 304.881 368.38 304.237 368.218 303.706C368.059 303.175 367.828 302.77 367.527 302.491C367.229 302.213 366.87 302.074 366.449 302.074C365.819 302.074 365.326 302.385 364.971 303.007C364.615 303.626 364.438 304.503 364.438 305.636C364.438 306.392 364.517 307.034 364.676 307.562C364.836 308.091 365.064 308.493 365.363 308.768C365.664 309.044 366.026 309.182 366.449 309.182Z" fill="black"/>
</g>
</g>
<g id="Nodo20">
<g id="EF_9">
<g id="Early_9">
<mask id="path-78-inside-33_41_2" fill="white">
<path d="M185.983 495.017C182.501 491.534 179.739 487.4 177.855 482.851C175.97 478.301 175 473.425 175 468.5C175 463.575 175.97 458.699 177.855 454.149C179.739 449.6 182.501 445.466 185.984 441.983L212.5 468.5L185.983 495.017Z"/>
</mask>
<path d="M185.983 495.017C182.501 491.534 179.739 487.4 177.855 482.851C175.97 478.301 175 473.425 175 468.5C175 463.575 175.97 458.699 177.855 454.149C179.739 449.6 182.501 445.466 185.984 441.983L212.5 468.5L185.983 495.017Z" fill="#D9D9D9" stroke="black" stroke-width="2" mask="url(#path-78-inside-33_41_2)"/>
</g>
<path id="0_25" d="M188.75 473.119C188.108 473.119 187.561 472.945 187.109 472.595C186.658 472.243 186.313 471.733 186.074 471.065C185.835 470.395 185.716 469.585 185.716 468.636C185.716 467.693 185.835 466.888 186.074 466.22C186.315 465.55 186.662 465.038 187.114 464.686C187.568 464.331 188.114 464.153 188.75 464.153C189.386 464.153 189.93 464.331 190.382 464.686C190.837 465.038 191.183 465.55 191.422 466.22C191.663 466.888 191.784 467.693 191.784 468.636C191.784 469.585 191.665 470.395 191.426 471.065C191.188 471.733 190.842 472.243 190.391 472.595C189.939 472.945 189.392 473.119 188.75 473.119ZM188.75 472.182C189.386 472.182 189.881 471.875 190.233 471.261C190.585 470.648 190.761 469.773 190.761 468.636C190.761 467.881 190.68 467.237 190.518 466.706C190.359 466.175 190.129 465.77 189.828 465.491C189.53 465.213 189.17 465.074 188.75 465.074C188.119 465.074 187.626 465.385 187.271 466.007C186.916 466.626 186.739 467.503 186.739 468.636C186.739 469.392 186.818 470.034 186.977 470.562C187.136 471.091 187.365 471.493 187.663 471.768C187.964 472.044 188.327 472.182 188.75 472.182Z" fill="black"/>
</g>
<g id="LF_9">
<g id="Latest_9">
<mask id="path-80-inside-34_41_2" fill="white">
<path d="M239.017 441.983C242.499 445.466 245.261 449.6 247.145 454.149C249.03 458.699 250 463.575 250 468.5C250 473.425 249.03 478.301 247.145 482.851C245.261 487.4 242.499 491.534 239.017 495.017L212.5 468.5L239.017 441.983Z"/>
</mask>
<path d="M239.017 441.983C242.499 445.466 245.261 449.6 247.145 454.149C249.03 458.699 250 463.575 250 468.5C250 473.425 249.03 478.301 247.145 482.851C245.261 487.4 242.499 491.534 239.017 495.017L212.5 468.5L239.017 441.983Z" fill="#D9D9D9" stroke="black" stroke-width="2" mask="url(#path-80-inside-34_41_2)"/>
</g>
<path id="0_26" d="M237.75 473.119C237.108 473.119 236.561 472.945 236.109 472.595C235.658 472.243 235.313 471.733 235.074 471.065C234.835 470.395 234.716 469.585 234.716 468.636C234.716 467.693 234.835 466.888 235.074 466.22C235.315 465.55 235.662 465.038 236.114 464.686C236.568 464.331 237.114 464.153 237.75 464.153C238.386 464.153 238.93 464.331 239.382 464.686C239.837 465.038 240.183 465.55 240.422 466.22C240.663 466.888 240.784 467.693 240.784 468.636C240.784 469.585 240.665 470.395 240.426 471.065C240.188 471.733 239.842 472.243 239.391 472.595C238.939 472.945 238.392 473.119 237.75 473.119ZM237.75 472.182C238.386 472.182 238.881 471.875 239.233 471.261C239.585 470.648 239.761 469.773 239.761 468.636C239.761 467.881 239.68 467.237 239.518 466.706C239.359 466.175 239.129 465.77 238.828 465.491C238.53 465.213 238.17 465.074 237.75 465.074C237.119 465.074 236.626 465.385 236.271 466.007C235.916 466.626 235.739 467.503 235.739 468.636C235.739 469.392 235.818 470.034 235.977 470.562C236.136 471.091 236.365 471.493 236.663 471.768C236.964 472.044 237.327 472.182 237.75 472.182Z" fill="black"/>
</g>
<g id="Holgura_17">
<g id="Holgura_18">
<mask id="path-82-inside-35_41_2" fill="white">
<path d="M239.017 495.017C235.534 498.499 231.4 501.261 226.851 503.145C222.301 505.03 217.425 506 212.5 506C207.575 506 202.699 505.03 198.149 503.145C193.6 501.261 189.466 498.499 185.983 495.016L212.5 468.5L239.017 495.017Z"/>
</mask>
<path d="M239.017 495.017C235.534 498.499 231.4 501.261 226.851 503.145C222.301 505.03 217.425 506 212.5 506C207.575 506 202.699 505.03 198.149 503.145C193.6 501.261 189.466 498.499 185.983 495.016L212.5 468.5L239.017 495.017Z" fill="#D9D9D9" stroke="black" stroke-width="2" mask="url(#path-82-inside-35_41_2)"/>
</g>
<path id="0_27" d="M212.75 496.119C212.108 496.119 211.561 495.945 211.109 495.595C210.658 495.243 210.313 494.733 210.074 494.065C209.835 493.395 209.716 492.585 209.716 491.636C209.716 490.693 209.835 489.888 210.074 489.22C210.315 488.55 210.662 488.038 211.114 487.686C211.568 487.331 212.114 487.153 212.75 487.153C213.386 487.153 213.93 487.331 214.382 487.686C214.837 488.038 215.183 488.55 215.422 489.22C215.663 489.888 215.784 490.693 215.784 491.636C215.784 492.585 215.665 493.395 215.426 494.065C215.188 494.733 214.842 495.243 214.391 495.595C213.939 495.945 213.392 496.119 212.75 496.119ZM212.75 495.182C213.386 495.182 213.881 494.875 214.233 494.261C214.585 493.648 214.761 492.773 214.761 491.636C214.761 490.881 214.68 490.237 214.518 489.706C214.359 489.175 214.129 488.77 213.828 488.491C213.53 488.213 213.17 488.074 212.75 488.074C212.119 488.074 211.626 488.385 211.271 489.007C210.916 489.626 210.739 490.503 210.739 491.636C210.739 492.392 210.818 493.034 210.977 493.562C211.136 494.091 211.365 494.493 211.663 494.768C211.964 495.044 212.327 495.182 212.75 495.182Z" fill="black"/>
</g>
<g id="Nombre_9">
<g id="NombreNodo_9">
<mask id="path-84-inside-36_41_2" fill="white">
<path d="M185.983 441.983C189.466 438.501 193.6 435.739 198.149 433.855C202.699 431.97 207.575 431 212.5 431C217.425 431 222.301 431.97 226.851 433.855C231.4 435.739 235.534 438.501 239.017 441.984L212.5 468.5L185.983 441.983Z"/>
</mask>
<path d="M185.983 441.983C189.466 438.501 193.6 435.739 198.149 433.855C202.699 431.97 207.575 431 212.5 431C217.425 431 222.301 431.97 226.851 433.855C231.4 435.739 235.534 438.501 239.017 441.984L212.5 468.5L185.983 441.983Z" fill="#D9D9D9" stroke="black" stroke-width="2" mask="url(#path-84-inside-36_41_2)"/>
</g>
<path id="20" d="M205.903 450V449.233L208.784 446.08C209.122 445.71 209.401 445.389 209.619 445.116C209.838 444.841 210 444.582 210.105 444.341C210.213 444.097 210.267 443.841 210.267 443.574C210.267 443.267 210.193 443.001 210.045 442.777C209.901 442.553 209.702 442.379 209.449 442.257C209.196 442.135 208.912 442.074 208.597 442.074C208.261 442.074 207.969 442.143 207.719 442.283C207.472 442.419 207.28 442.611 207.143 442.858C207.01 443.105 206.943 443.395 206.943 443.727H205.938C205.938 443.216 206.055 442.767 206.291 442.381C206.527 441.994 206.848 441.693 207.254 441.477C207.663 441.261 208.122 441.153 208.631 441.153C209.142 441.153 209.595 441.261 209.99 441.477C210.385 441.693 210.695 441.984 210.919 442.351C211.143 442.717 211.256 443.125 211.256 443.574C211.256 443.895 211.197 444.209 211.081 444.516C210.967 444.82 210.768 445.159 210.484 445.534C210.203 445.906 209.812 446.361 209.312 446.898L207.352 448.994V449.062H211.409V450H205.903ZM216.016 450.119C215.374 450.119 214.827 449.945 214.375 449.595C213.923 449.243 213.578 448.733 213.339 448.065C213.101 447.395 212.982 446.585 212.982 445.636C212.982 444.693 213.101 443.888 213.339 443.22C213.581 442.55 213.928 442.038 214.379 441.686C214.834 441.331 215.379 441.153 216.016 441.153C216.652 441.153 217.196 441.331 217.648 441.686C218.102 442.038 218.449 442.55 218.688 443.22C218.929 443.888 219.05 444.693 219.05 445.636C219.05 446.585 218.93 447.395 218.692 448.065C218.453 448.733 218.108 449.243 217.656 449.595C217.205 449.945 216.658 450.119 216.016 450.119ZM216.016 449.182C216.652 449.182 217.146 448.875 217.499 448.261C217.851 447.648 218.027 446.773 218.027 445.636C218.027 444.881 217.946 444.237 217.784 443.706C217.625 443.175 217.395 442.77 217.094 442.491C216.795 442.213 216.436 442.074 216.016 442.074C215.385 442.074 214.892 442.385 214.537 443.007C214.182 443.626 214.004 444.503 214.004 445.636C214.004 446.392 214.084 447.034 214.243 447.562C214.402 448.091 214.631 448.493 214.929 448.768C215.23 449.044 215.592 449.182 216.016 449.182Z" fill="black"/>
</g>
</g>
<g id="Nodo0">
<g id="Early_10">
<mask id="path-86-inside-37_41_2" fill="white">
<path d="M16.9835 328.017C13.5013 324.534 10.7391 320.4 8.85452 315.851C6.96997 311.301 6 306.425 6 301.5C6 296.575 6.96997 291.699 8.85452 287.149C10.7391 282.6 13.5013 278.466 16.9835 274.983L43.5 301.5L16.9835 328.017Z"/>
</mask>
<path d="M16.9835 328.017C13.5013 324.534 10.7391 320.4 8.85452 315.851C6.96997 311.301 6 306.425 6 301.5C6 296.575 6.96997 291.699 8.85452 287.149C10.7391 282.6 13.5013 278.466 16.9835 274.983L43.5 301.5L16.9835 328.017Z" fill="#D9D9D9" stroke="black" stroke-width="2" mask="url(#path-86-inside-37_41_2)"/>
</g>
<path id="0_28" d="M19.75 306.119C19.108 306.119 18.5611 305.945 18.1094 305.595C17.6577 305.243 17.3125 304.733 17.0739 304.065C16.8352 303.395 16.7159 302.585 16.7159 301.636C16.7159 300.693 16.8352 299.888 17.0739 299.22C17.3153 298.55 17.6619 298.038 18.1136 297.686C18.5682 297.331 19.1136 297.153 19.75 297.153C20.3864 297.153 20.9304 297.331 21.3821 297.686C21.8366 298.038 22.1832 298.55 22.4219 299.22C22.6634 299.888 22.7841 300.693 22.7841 301.636C22.7841 302.585 22.6648 303.395 22.4261 304.065C22.1875 304.733 21.8423 305.243 21.3906 305.595C20.9389 305.945 20.392 306.119 19.75 306.119ZM19.75 305.182C20.3864 305.182 20.8807 304.875 21.233 304.261C21.5852 303.648 21.7614 302.773 21.7614 301.636C21.7614 300.881 21.6804 300.237 21.5185 299.706C21.3594 299.175 21.1293 298.77 20.8281 298.491C20.5298 298.213 20.1705 298.074 19.75 298.074C19.1193 298.074 18.6264 298.385 18.2713 299.007C17.9162 299.626 17.7386 300.503 17.7386 301.636C17.7386 302.392 17.8182 303.034 17.9773 303.562C18.1364 304.091 18.3651 304.493 18.6634 304.768C18.9645 305.044 19.3267 305.182 19.75 305.182Z" fill="black"/>
<g id="Latest_10">
<mask id="path-88-inside-38_41_2" fill="white">
<path d="M70.0165 274.983C73.4987 278.466 76.2609 282.6 78.1455 287.149C80.03 291.699 81 296.575 81 301.5C81 306.425 80.03 311.301 78.1455 315.851C76.2609 320.4 73.4987 324.534 70.0165 328.017L43.5 301.5L70.0165 274.983Z"/>
</mask>
<path d="M70.0165 274.983C73.4987 278.466 76.2609 282.6 78.1455 287.149C80.03 291.699 81 296.575 81 301.5C81 306.425 80.03 311.301 78.1455 315.851C76.2609 320.4 73.4987 324.534 70.0165 328.017L43.5 301.5L70.0165 274.983Z" fill="#D9D9D9" stroke="black" stroke-width="2" mask="url(#path-88-inside-38_41_2)"/>
</g>
<path id="0_29" d="M68.75 306.119C68.108 306.119 67.5611 305.945 67.1094 305.595C66.6577 305.243 66.3125 304.733 66.0739 304.065C65.8352 303.395 65.7159 302.585 65.7159 301.636C65.7159 300.693 65.8352 299.888 66.0739 299.22C66.3153 298.55 66.6619 298.038 67.1136 297.686C67.5682 297.331 68.1136 297.153 68.75 297.153C69.3864 297.153 69.9304 297.331 70.3821 297.686C70.8366 298.038 71.1832 298.55 71.4219 299.22C71.6634 299.888 71.7841 300.693 71.7841 301.636C71.7841 302.585 71.6648 303.395 71.4261 304.065C71.1875 304.733 70.8423 305.243 70.3906 305.595C69.9389 305.945 69.392 306.119 68.75 306.119ZM68.75 305.182C69.3864 305.182 69.8807 304.875 70.233 304.261C70.5852 303.648 70.7614 302.773 70.7614 301.636C70.7614 300.881 70.6804 300.237 70.5185 299.706C70.3594 299.175 70.1293 298.77 69.8281 298.491C69.5298 298.213 69.1705 298.074 68.75 298.074C68.1193 298.074 67.6264 298.385 67.2713 299.007C66.9162 299.626 66.7386 300.503 66.7386 301.636C66.7386 302.392 66.8182 303.034 66.9773 303.562C67.1364 304.091 67.3651 304.493 67.6634 304.768C67.9645 305.044 68.3267 305.182 68.75 305.182Z" fill="black"/>
<g id="Holgura_19">
<mask id="path-90-inside-39_41_2" fill="white">
<path d="M70.0165 328.017C66.5343 331.499 62.4003 334.261 57.8506 336.145C53.3009 338.03 48.4246 339 43.5 339C38.5754 339 33.6991 338.03 29.1494 336.145C24.5996 334.261 20.4657 331.499 16.9835 328.016L43.5 301.5L70.0165 328.017Z"/>
</mask>
<path d="M70.0165 328.017C66.5343 331.499 62.4003 334.261 57.8506 336.145C53.3009 338.03 48.4246 339 43.5 339C38.5754 339 33.6991 338.03 29.1494 336.145C24.5996 334.261 20.4657 331.499 16.9835 328.016L43.5 301.5L70.0165 328.017Z" fill="#D9D9D9" stroke="black" stroke-width="2" mask="url(#path-90-inside-39_41_2)"/>
</g>
<path id="0_30" d="M43.75 329.119C43.108 329.119 42.5611 328.945 42.1094 328.595C41.6577 328.243 41.3125 327.733 41.0739 327.065C40.8352 326.395 40.7159 325.585 40.7159 324.636C40.7159 323.693 40.8352 322.888 41.0739 322.22C41.3153 321.55 41.6619 321.038 42.1136 320.686C42.5682 320.331 43.1136 320.153 43.75 320.153C44.3864 320.153 44.9304 320.331 45.3821 320.686C45.8366 321.038 46.1832 321.55 46.4219 322.22C46.6634 322.888 46.7841 323.693 46.7841 324.636C46.7841 325.585 46.6648 326.395 46.4261 327.065C46.1875 327.733 45.8423 328.243 45.3906 328.595C44.9389 328.945 44.392 329.119 43.75 329.119ZM43.75 328.182C44.3864 328.182 44.8807 327.875 45.233 327.261C45.5852 326.648 45.7614 325.773 45.7614 324.636C45.7614 323.881 45.6804 323.237 45.5185 322.706C45.3594 322.175 45.1293 321.77 44.8281 321.491C44.5298 321.213 44.1705 321.074 43.75 321.074C43.1193 321.074 42.6264 321.385 42.2713 322.007C41.9162 322.626 41.7386 323.503 41.7386 324.636C41.7386 325.392 41.8182 326.034 41.9773 326.562C42.1364 327.091 42.3651 327.493 42.6634 327.768C42.9645 328.044 43.3267 328.182 43.75 328.182Z" fill="black"/>
<g id="NombreNodo_10">
<mask id="path-92-inside-40_41_2" fill="white">
<path d="M16.9835 274.983C20.4657 271.501 24.5997 268.739 29.1494 266.855C33.6991 264.97 38.5754 264 43.5 264C48.4246 264 53.3009 264.97 57.8506 266.855C62.4003 268.739 66.5343 271.501 70.0165 274.984L43.5 301.5L16.9835 274.983Z"/>
</mask>
<path d="M16.9835 274.983C20.4657 271.501 24.5997 268.739 29.1494 266.855C33.6991 264.97 38.5754 264 43.5 264C48.4246 264 53.3009 264.97 57.8506 266.855C62.4003 268.739 66.5343 271.501 70.0165 274.984L43.5 301.5L16.9835 274.983Z" fill="#D9D9D9" stroke="black" stroke-width="2" mask="url(#path-92-inside-40_41_2)"/>
</g>
<path id="0_31" d="M39.75 283.119C39.108 283.119 38.5611 282.945 38.1094 282.595C37.6577 282.243 37.3125 281.733 37.0739 281.065C36.8352 280.395 36.7159 279.585 36.7159 278.636C36.7159 277.693 36.8352 276.888 37.0739 276.22C37.3153 275.55 37.6619 275.038 38.1136 274.686C38.5682 274.331 39.1136 274.153 39.75 274.153C40.3864 274.153 40.9304 274.331 41.3821 274.686C41.8366 275.038 42.1832 275.55 42.4219 276.22C42.6634 276.888 42.7841 277.693 42.7841 278.636C42.7841 279.585 42.6648 280.395 42.4261 281.065C42.1875 281.733 41.8423 282.243 41.3906 282.595C40.9389 282.945 40.392 283.119 39.75 283.119ZM39.75 282.182C40.3864 282.182 40.8807 281.875 41.233 281.261C41.5852 280.648 41.7614 279.773 41.7614 278.636C41.7614 277.881 41.6804 277.237 41.5185 276.706C41.3594 276.175 41.1293 275.77 40.8281 275.491C40.5298 275.213 40.1705 275.074 39.75 275.074C39.1193 275.074 38.6264 275.385 38.2713 276.007C37.9162 276.626 37.7386 277.503 37.7386 278.636C37.7386 279.392 37.8182 280.034 37.9773 280.562C38.1364 281.091 38.3651 281.493 38.6634 281.768C38.9645 282.044 39.3267 282.182 39.75 282.182Z" fill="black"/>
</g>
</g>
</svg>
